{"glyphs":{"0":{"ha":722,"x_min":104,"x_max":618,"o":"m 618 268 q 551 53 618 124 q 361 -17 485 -17 q 171 53 238 -17 q 104 268 104 124 l 104 567 q 171 781 104 711 q 361 851 238 851 q 551 781 485 851 q 618 567 618 711 l 618 268 m 500 578 q 463 710 500 669 q 361 751 426 751 q 258 710 294 751 q 222 578 222 669 l 222 257 q 259 124 222 165 q 361 83 296 83 q 463 124 426 83 q 500 257 500 165 l 500 578 z "},"1":{"ha":722,"x_min":118,"x_max":603,"o":"m 151 0 l 151 101 l 329 101 l 329 721 l 326 721 l 142 642 l 118 743 l 343 835 l 447 835 l 447 101 l 603 101 l 603 0 l 151 0 z "},"2":{"ha":722,"x_min":132,"x_max":590,"o":"m 328 751 q 238 742 288 751 q 153 722 189 733 l 153 824 q 245 844 199 836 q 328 851 292 851 q 527 797 464 851 q 590 635 590 743 l 590 604 q 586 547 590 575 q 570 490 582 519 q 535 424 558 460 q 475 344 513 389 l 274 101 l 586 101 l 586 0 l 132 0 l 132 90 l 410 442 q 442 486 429 467 q 461 523 454 506 q 470 559 468 540 q 472 603 472 578 l 472 628 q 438 723 472 694 q 328 751 404 751 z "},"3":{"ha":722,"x_min":143,"x_max":579,"o":"m 318 754 q 228 748 278 754 q 143 735 179 742 l 143 833 q 235 846 189 840 q 318 851 282 851 q 499 794 438 851 q 561 635 561 738 l 561 621 q 535 510 561 557 q 454 436 508 463 q 546 360 513 413 q 579 240 579 307 l 579 226 q 563 128 579 174 q 515 51 547 83 q 434 1 482 19 q 322 -17 386 -17 q 238 -11 286 -17 q 143 1 189 -6 l 143 100 q 231 88 179 93 q 322 82 282 82 q 425 119 389 82 q 461 219 461 156 l 461 242 q 315 383 461 383 l 192 383 l 192 478 l 315 478 q 413 510 382 478 q 443 615 443 543 l 443 642 q 318 754 443 754 z "},"4":{"ha":722,"x_min":71,"x_max":651,"o":"m 368 835 l 193 276 l 435 276 l 435 557 l 549 557 l 549 276 l 651 276 l 651 179 l 549 179 l 549 0 l 433 0 l 433 179 l 101 179 l 71 242 l 261 835 l 368 835 z "},"5":{"ha":722,"x_min":114,"x_max":608,"o":"m 608 244 q 542 49 608 115 q 338 -17 475 -17 q 283 -14 311 -17 q 226 -7 254 -11 q 174 3 199 -3 q 128 14 149 8 l 128 110 q 174 101 146 106 q 233 92 203 96 q 290 86 263 89 q 335 83 317 83 q 451 124 413 83 q 490 244 490 165 l 490 299 q 463 401 490 369 q 388 432 436 432 q 290 411 332 432 q 204 342 247 390 l 114 342 l 114 839 l 542 839 l 542 738 l 232 738 l 232 469 q 417 531 310 531 q 559 476 510 531 q 608 294 608 422 l 608 244 z "},"6":{"ha":722,"x_min":104,"x_max":618,"o":"m 104 503 q 214 753 104 667 q 544 842 324 839 l 544 740 q 296 683 369 738 q 222 525 222 628 l 222 447 q 321 519 275 497 q 408 540 367 540 q 562 481 506 540 q 618 294 618 421 l 618 240 q 552 49 618 114 q 360 -17 486 -17 q 169 52 233 -17 q 104 247 104 121 l 104 503 m 222 240 q 360 83 222 83 q 500 233 500 83 l 500 299 q 470 403 500 369 q 388 438 440 438 q 305 410 347 438 q 222 347 263 383 l 222 240 z "},"7":{"ha":722,"x_min":110,"x_max":611,"o":"m 611 833 l 611 753 l 300 0 l 174 0 l 485 729 l 485 732 l 110 732 l 110 833 l 611 833 z "},"8":{"ha":722,"x_min":90,"x_max":632,"o":"m 632 226 q 563 48 632 113 q 361 -17 494 -17 q 160 47 229 -17 q 90 226 90 111 l 90 247 q 214 446 90 392 q 148 518 169 472 q 126 625 126 564 l 126 632 q 190 794 126 738 q 361 851 253 851 q 533 795 469 851 q 596 632 596 739 l 596 625 q 574 518 596 564 q 508 446 553 472 q 600 369 568 418 q 632 247 632 319 l 632 226 m 481 639 q 451 731 481 701 q 361 760 421 760 q 242 639 242 760 l 242 613 q 269 519 242 547 q 361 490 296 490 q 454 519 428 490 q 481 613 481 547 l 481 639 m 514 250 q 473 360 514 322 q 361 399 432 399 q 249 360 289 399 q 208 250 208 321 l 208 215 q 247 119 208 156 q 361 82 286 82 q 475 119 436 82 q 514 215 514 156 l 514 250 z "},"9":{"ha":722,"x_min":104,"x_max":618,"o":"m 618 289 q 547 56 618 128 q 335 -17 476 -17 q 285 -14 311 -17 q 233 -8 258 -11 q 188 -1 208 -4 q 156 6 167 3 l 156 104 q 197 97 172 101 q 247 90 221 93 q 297 84 274 86 q 335 82 319 82 q 459 127 418 82 q 500 281 500 172 l 500 386 q 311 293 403 293 q 159 354 214 293 q 104 539 104 415 l 104 593 q 169 784 104 718 q 363 850 233 850 q 553 783 489 850 q 618 586 618 717 l 618 289 m 500 593 q 363 750 500 750 q 222 600 222 750 l 222 535 q 252 431 222 465 q 335 396 282 396 q 417 423 375 396 q 500 486 460 450 l 500 593 z "}," ":{"ha":417,"x_min":0,"x_max":0,"o":""},"\u0003":{"ha":0,"x_min":0,"x_max":0,"o":""},"\u0004":{"ha":0,"x_min":0,"x_max":0,"o":""},"\u0005":{"ha":0,"x_min":0,"x_max":0,"o":""},"\u0006":{"ha":0,"x_min":0,"x_max":0,"o":""},"\u0007":{"ha":0,"x_min":0,"x_max":0,"o":""},"\b":{"ha":0,"x_min":0,"x_max":0,"o":""},"\t":{"ha":0,"x_min":0,"x_max":0,"o":""},"\u0001":{"ha":0,"x_min":0,"x_max":0,"o":""},"\u0010":{"ha":0,"x_min":0,"x_max":0,"o":""},"\u0011":{"ha":0,"x_min":0,"x_max":0,"o":""},"\u0012":{"ha":0,"x_min":0,"x_max":0,"o":""},"\u0013":{"ha":0,"x_min":0,"x_max":0,"o":""},"\u0014":{"ha":0,"x_min":0,"x_max":0,"o":""},"\u0015":{"ha":0,"x_min":0,"x_max":0,"o":""},"\u0016":{"ha":0,"x_min":0,"x_max":0,"o":""},"\u0017":{"ha":0,"x_min":0,"x_max":0,"o":""},"\u0018":{"ha":0,"x_min":0,"x_max":0,"o":""},"\u0019":{"ha":0,"x_min":0,"x_max":0,"o":""},"\u0002":{"ha":0,"x_min":0,"x_max":0,"o":""},"!":{"ha":293,"x_min":69,"x_max":224,"o":"m 90 278 l 81 965 l 213 965 l 203 278 l 90 278 m 224 46 q 146 -17 224 -17 q 69 46 69 -17 l 69 86 q 146 150 69 150 q 224 86 224 150 l 224 46 z "},"\"":{"ha":521,"x_min":104,"x_max":417,"o":"m 104 949 l 222 949 l 222 596 l 104 596 l 104 949 m 299 949 l 417 949 l 417 596 l 299 596 l 299 949 z "},"#":{"ha":722,"x_min":24,"x_max":699,"o":"m 588 174 l 588 0 l 469 0 l 469 174 l 253 174 l 253 0 l 135 0 l 135 174 l 24 174 l 24 271 l 135 271 l 135 581 l 24 581 l 24 678 l 135 678 l 135 851 l 253 851 l 253 678 l 469 678 l 469 851 l 588 851 l 588 678 l 699 678 l 699 581 l 588 581 l 588 271 l 699 271 l 699 174 l 588 174 m 469 581 l 253 581 l 253 271 l 469 271 l 469 581 z "},"$":{"ha":722,"x_min":103,"x_max":618,"o":"m 314 -131 l 314 -17 q 226 -8 269 -15 q 138 7 182 -1 l 140 108 q 235 91 192 97 q 322 85 278 85 q 461 115 422 85 q 500 204 500 146 l 500 232 q 495 271 500 254 q 477 300 490 288 q 440 324 464 313 q 379 346 417 335 l 293 372 q 201 408 238 389 q 142 453 164 426 q 112 519 121 481 q 103 613 103 557 l 103 619 q 151 778 103 721 q 314 847 200 835 l 314 965 l 418 965 l 418 850 q 494 842 456 847 q 569 832 532 838 l 567 731 q 481 744 528 738 q 385 750 433 750 q 257 719 293 750 q 221 631 221 689 l 221 603 q 224 560 221 578 q 239 529 228 543 q 271 505 250 515 q 326 485 292 494 l 414 458 q 513 420 474 440 q 575 373 551 400 q 608 310 599 346 q 618 222 618 274 l 618 215 q 574 64 618 122 q 418 -10 529 6 l 418 -131 l 314 -131 z "},"%":{"ha":1281,"x_min":90,"x_max":1190,"o":"m 474 0 l 353 0 l 818 851 l 939 851 l 474 0 m 528 588 q 474 423 528 481 q 310 365 419 365 q 145 423 200 365 q 90 588 90 481 l 90 629 q 145 794 90 736 q 310 851 200 851 q 474 794 419 851 q 528 629 528 736 l 528 588 m 410 629 q 385 720 410 693 q 310 747 360 747 q 234 719 260 747 q 208 629 208 692 l 208 588 q 233 497 208 525 q 310 469 258 469 q 385 497 360 469 q 410 588 410 525 l 410 629 m 1190 206 q 1136 41 1190 99 q 972 -17 1082 -17 q 808 41 863 -17 q 753 206 753 99 l 753 247 q 808 412 753 354 q 972 469 863 469 q 1136 412 1082 469 q 1190 247 1190 354 l 1190 206 m 1072 247 q 1047 338 1072 311 q 972 365 1022 365 q 897 338 922 365 q 871 247 871 310 l 871 206 q 896 115 871 143 q 972 88 921 88 q 1047 115 1022 88 q 1072 206 1072 143 l 1072 247 z "},"&":{"ha":736,"x_min":49,"x_max":729,"o":"m 340 828 q 232 793 265 828 q 199 694 199 758 l 199 664 q 242 551 199 593 q 372 510 286 510 l 513 510 l 513 611 l 626 611 l 626 510 l 729 510 l 729 414 l 626 414 l 626 18 q 549 2 582 8 q 487 -8 515 -4 q 431 -15 458 -12 q 372 -17 404 -17 q 219 1 281 -17 q 119 50 157 18 q 65 126 81 82 q 49 225 49 171 l 49 256 q 90 391 49 333 q 211 472 132 449 q 113 555 142 503 q 83 674 83 607 l 83 704 q 100 791 83 750 q 149 862 117 832 q 229 909 181 892 q 340 926 278 926 q 418 922 379 926 q 504 911 457 918 l 501 813 q 425 824 465 819 q 340 828 385 828 m 513 414 l 364 414 q 215 373 263 414 q 167 261 167 332 l 167 224 q 216 120 167 157 q 372 83 265 83 q 440 88 408 83 q 513 101 471 92 l 513 414 z "},"'":{"ha":326,"x_min":104,"x_max":222,"o":"m 104 949 l 222 949 l 222 596 l 104 596 l 104 949 z "},"(":{"ha":722,"x_min":226,"x_max":464,"o":"m 226 838 q 235 963 226 914 q 271 1042 244 1013 q 344 1082 297 1071 q 464 1093 390 1093 l 464 993 q 403 985 426 990 q 367 969 379 981 q 349 938 354 957 q 344 889 344 919 l 344 60 q 348 -1 344 22 q 364 -37 351 -24 q 400 -58 376 -51 q 464 -65 424 -64 l 464 -165 q 344 -154 390 -165 q 271 -114 297 -143 q 235 -35 244 -85 q 226 90 226 14 l 226 838 z "},")":{"ha":722,"x_min":257,"x_max":494,"o":"m 494 90 q 485 -35 494 14 q 449 -114 475 -85 q 377 -154 424 -143 q 257 -165 331 -165 l 257 -65 q 321 -58 297 -64 q 357 -37 344 -51 q 373 -1 369 -24 q 376 60 376 22 l 376 889 q 372 938 376 919 q 354 969 367 957 q 318 985 342 981 q 257 993 294 990 l 257 1093 q 377 1082 331 1093 q 449 1042 424 1071 q 485 963 475 1013 q 494 838 494 914 l 494 90 z "},"*":{"ha":569,"x_min":76,"x_max":493,"o":"m 318 810 l 461 871 l 493 779 l 339 744 l 442 628 l 363 571 l 283 704 l 204 569 l 126 628 l 229 746 l 76 779 l 108 871 l 250 811 l 236 965 l 332 965 l 318 810 z "},"+":{"ha":722,"x_min":114,"x_max":608,"o":"m 414 368 l 414 157 l 308 157 l 308 368 l 114 368 l 114 467 l 308 467 l 308 678 l 414 678 l 414 467 l 608 467 l 608 368 l 414 368 z "},",":{"ha":306,"x_min":76,"x_max":229,"o":"m 229 44 q 219 -26 229 4 l 160 -224 l 76 -224 l 126 -12 q 78 47 78 -1 l 78 88 q 153 150 78 150 q 229 88 229 150 l 229 44 z "},"-":{"ha":486,"x_min":90,"x_max":396,"o":"m 90 365 l 90 456 l 396 456 l 396 365 l 90 365 z "},".":{"ha":307,"x_min":76,"x_max":231,"o":"m 231 46 q 153 -17 231 -17 q 76 46 76 -17 l 76 86 q 153 150 76 150 q 231 86 231 150 l 231 46 z "},"/":{"ha":722,"x_min":160,"x_max":563,"o":"m 160 0 l 444 949 l 563 949 l 278 0 l 160 0 z "},":":{"ha":307,"x_min":76,"x_max":231,"o":"m 231 46 q 153 -17 231 -17 q 76 46 76 -17 l 76 86 q 153 150 76 150 q 231 86 231 150 l 231 46 m 231 590 q 153 528 231 528 q 76 590 76 528 l 76 631 q 153 694 76 694 q 231 631 231 694 l 231 590 z "},";":{"ha":307,"x_min":76,"x_max":231,"o":"m 231 590 q 153 528 231 528 q 76 590 76 528 l 76 631 q 153 694 76 694 q 231 631 231 694 l 231 590 m 229 44 q 219 -26 229 4 l 160 -224 l 76 -224 l 126 -12 q 78 47 78 -1 l 78 88 q 153 150 78 150 q 229 88 229 150 l 229 44 z "},"<":{"ha":722,"x_min":111,"x_max":611,"o":"m 111 360 l 111 464 l 611 686 l 611 571 l 228 413 l 611 253 l 611 138 l 111 360 z "},"=":{"ha":722,"x_min":115,"x_max":607,"o":"m 115 250 l 115 347 l 607 347 l 607 250 l 115 250 m 115 488 l 115 585 l 607 585 l 607 488 l 115 488 z "},">":{"ha":722,"x_min":111,"x_max":611,"o":"m 111 138 l 111 253 l 494 413 l 111 571 l 111 686 l 611 464 l 611 360 l 111 138 z "},"?":{"ha":549,"x_min":35,"x_max":472,"o":"m 210 871 q 120 863 169 871 q 35 846 71 854 l 35 943 q 131 959 81 953 q 217 965 181 965 q 414 915 356 965 q 472 774 472 864 l 472 739 q 444 620 472 676 q 351 496 417 564 l 306 446 q 288 424 294 435 q 276 403 281 414 q 270 376 272 392 q 268 340 268 361 l 268 278 l 156 278 l 156 322 q 158 378 156 356 q 165 419 160 401 q 182 454 171 438 q 211 492 193 471 l 292 586 q 323 627 311 608 q 342 663 335 646 q 351 699 349 681 q 354 742 354 718 l 354 772 q 324 847 354 822 q 210 871 294 871 m 292 46 q 214 -17 292 -17 q 138 46 138 -17 l 138 86 q 214 150 138 150 q 292 86 292 150 l 292 46 z "},"@":{"ha":1333,"x_min":104,"x_max":1229,"o":"m 415 444 q 490 618 431 558 q 642 678 549 678 q 688 671 664 678 q 732 653 711 664 q 772 628 753 642 q 804 603 790 615 l 811 660 l 922 660 l 867 219 q 865 203 865 213 q 864 192 864 194 q 880 143 864 161 q 935 125 896 125 q 1003 143 971 125 q 1059 194 1035 161 q 1097 273 1083 228 q 1111 372 1111 318 l 1111 442 q 997 754 1111 649 q 653 860 883 860 q 335 742 449 860 q 222 400 222 624 l 222 261 q 330 -47 222 58 q 653 -151 438 -151 l 840 -151 l 840 -257 l 653 -257 q 238 -124 371 -257 q 104 261 104 8 l 104 400 q 137 628 104 525 q 237 807 169 732 q 408 924 304 882 q 653 965 511 965 q 1088 833 947 965 q 1229 442 1229 700 l 1229 372 q 1209 231 1229 296 q 1151 120 1189 167 q 1058 47 1113 74 q 933 21 1003 21 q 810 55 854 21 q 758 151 767 89 q 653 56 710 92 q 544 21 597 21 q 426 67 467 21 q 386 199 386 113 q 388 226 386 207 q 390 253 389 244 l 415 444 m 581 126 q 667 158 621 126 q 753 253 713 190 l 783 504 q 722 553 758 535 q 653 572 685 572 q 573 538 606 572 q 531 428 540 504 l 510 268 q 506 224 506 243 q 526 149 506 171 q 581 126 546 126 z "},"A":{"ha":744,"x_min":21,"x_max":724,"o":"m 536 211 l 201 211 l 142 0 l 21 0 l 299 910 l 444 910 l 724 0 l 596 0 l 536 211 m 231 317 l 506 317 l 369 801 l 231 317 z "},"B":{"ha":733,"x_min":104,"x_max":685,"o":"m 104 921 q 213 925 153 924 q 349 926 274 926 q 573 865 499 926 q 647 704 647 803 l 647 674 q 617 553 647 604 q 519 472 586 501 q 641 401 597 456 q 685 265 685 347 l 685 235 q 665 134 685 181 q 606 54 646 88 q 505 2 567 21 q 358 -17 443 -17 l 301 -17 q 249 -15 276 -17 q 188 -12 222 -14 q 104 -8 154 -11 l 104 921 m 222 94 q 268 90 250 92 q 301 88 286 89 q 328 86 315 86 l 358 86 q 518 128 469 86 q 567 242 567 171 l 567 271 q 519 377 567 340 q 367 414 472 414 l 222 414 l 222 94 m 222 510 l 358 510 q 486 550 443 510 q 529 663 529 590 l 529 686 q 484 789 529 753 q 331 825 439 825 q 222 821 281 825 l 222 510 z "},"C":{"ha":661,"x_min":97,"x_max":585,"o":"m 393 926 q 490 919 440 926 q 585 904 539 911 l 582 800 q 496 815 547 807 q 393 822 444 822 q 256 784 297 822 q 215 654 215 746 l 215 257 q 256 128 215 167 q 393 90 297 90 q 496 98 444 90 q 582 113 547 106 l 585 6 q 490 -9 539 -1 q 393 -17 440 -17 q 254 1 311 -17 q 163 53 197 18 q 113 142 128 89 q 97 264 97 194 l 97 646 q 164 857 97 788 q 393 926 231 926 z "},"D":{"ha":793,"x_min":104,"x_max":703,"o":"m 222 93 q 351 85 303 85 q 520 145 456 85 q 585 325 585 206 l 585 571 q 522 763 585 700 q 351 826 460 826 q 286 826 318 826 q 222 824 254 825 l 222 93 m 104 921 q 215 925 151 924 q 358 926 278 926 q 613 833 524 926 q 703 563 703 740 l 703 335 q 615 74 703 165 q 351 -17 526 -17 q 225 -15 281 -17 q 104 -8 169 -12 l 104 921 z "},"E":{"ha":674,"x_min":104,"x_max":583,"o":"m 104 0 l 104 910 l 583 910 l 583 803 l 222 803 l 222 515 l 556 515 l 556 410 l 222 410 l 222 107 l 583 107 l 583 0 l 104 0 z "},"F":{"ha":674,"x_min":104,"x_max":583,"o":"m 222 803 l 222 515 l 494 515 l 494 410 l 222 410 l 222 0 l 104 0 l 104 910 l 583 910 l 583 803 l 222 803 z "},"G":{"ha":778,"x_min":97,"x_max":674,"o":"m 393 -17 q 254 1 311 -17 q 163 53 197 18 q 113 142 128 89 q 97 264 97 194 l 97 646 q 167 860 97 793 q 393 926 236 926 q 453 924 421 926 q 518 916 486 921 q 580 906 550 911 q 633 896 610 900 l 631 794 q 583 803 611 799 q 524 813 556 808 q 458 822 492 818 q 393 825 424 825 q 256 786 296 825 q 215 658 215 747 l 215 256 q 256 127 215 167 q 393 88 296 88 q 470 93 428 88 q 556 107 513 99 l 556 414 l 382 414 l 382 525 l 674 525 l 674 35 q 541 0 615 17 q 393 -17 467 -17 z "},"H":{"ha":806,"x_min":104,"x_max":701,"o":"m 583 0 l 583 417 l 222 417 l 222 0 l 104 0 l 104 910 l 222 910 l 222 522 l 583 522 l 583 910 l 701 910 l 701 0 l 583 0 z "},"I":{"ha":326,"x_min":104,"x_max":222,"o":"m 104 0 l 104 910 l 222 910 l 222 0 l 104 0 z "},"J":{"ha":433,"x_min":28,"x_max":329,"o":"m 329 193 q 279 35 329 86 q 117 -17 229 -17 q 65 -13 93 -17 q 28 -7 38 -10 l 28 92 q 67 87 39 89 q 122 85 96 85 q 188 105 165 85 q 211 172 211 125 l 211 910 l 329 910 l 329 193 z "},"K":{"ha":764,"x_min":104,"x_max":729,"o":"m 104 0 l 104 910 l 222 910 l 222 471 l 561 910 l 693 910 l 344 469 l 729 0 l 578 0 l 222 450 l 222 0 l 104 0 z "},"L":{"ha":618,"x_min":104,"x_max":583,"o":"m 104 0 l 104 910 l 222 910 l 222 104 l 583 104 l 583 0 l 104 0 z "},"M":{"ha":971,"x_min":97,"x_max":874,"o":"m 758 0 l 751 747 l 558 94 l 413 94 l 219 747 l 213 0 l 97 0 l 106 910 l 281 910 l 486 200 l 690 910 l 865 910 l 874 0 l 758 0 z "},"N":{"ha":808,"x_min":104,"x_max":704,"o":"m 521 0 l 221 768 l 221 0 l 104 0 l 104 910 l 293 910 l 588 142 l 588 910 l 704 910 l 704 0 l 521 0 z "},"O":{"ha":800,"x_min":97,"x_max":703,"o":"m 215 269 q 262 134 215 181 q 400 88 308 88 q 538 134 492 88 q 585 269 585 181 l 585 640 q 539 775 585 728 q 400 822 493 822 q 261 776 307 822 q 215 642 215 729 l 215 269 m 97 628 q 115 751 97 696 q 168 846 132 807 q 262 906 204 885 q 400 926 319 926 q 538 906 481 926 q 632 846 596 885 q 685 751 668 807 q 703 628 703 696 l 703 282 q 685 158 703 213 q 632 64 668 103 q 538 4 596 25 q 400 -17 481 -17 q 262 4 319 -17 q 168 64 204 25 q 115 158 132 103 q 97 282 97 213 l 97 628 z "},"P":{"ha":700,"x_min":104,"x_max":665,"o":"m 104 0 l 104 919 q 213 924 157 922 q 344 926 269 926 q 588 860 511 926 q 665 674 665 793 l 665 640 q 590 442 665 514 q 356 369 515 369 q 294 372 325 369 q 222 381 263 374 l 222 0 l 104 0 m 222 482 q 297 473 269 475 q 350 471 325 471 q 547 646 547 471 l 547 669 q 499 788 547 747 q 342 828 450 828 q 270 827 296 828 q 222 825 244 826 l 222 482 z "},"Q":{"ha":800,"x_min":97,"x_max":733,"o":"m 97 628 q 115 751 97 696 q 168 846 132 807 q 262 906 204 885 q 400 926 319 926 q 538 906 481 926 q 632 846 596 885 q 685 751 668 807 q 703 628 703 696 l 703 285 q 674 128 703 189 q 582 32 644 67 l 731 -8 l 733 -118 l 707 -118 l 435 -15 q 418 -17 426 -17 l 401 -17 q 262 4 319 -17 q 168 64 204 25 q 115 158 132 103 q 97 282 97 213 l 97 628 m 215 269 q 262 134 215 181 q 400 88 308 88 q 585 276 585 88 l 585 640 q 539 775 585 728 q 400 822 493 822 q 261 776 307 822 q 215 642 215 729 l 215 269 z "},"R":{"ha":761,"x_min":104,"x_max":726,"o":"m 344 926 q 490 909 429 926 q 588 860 550 892 q 644 785 626 829 q 663 685 663 740 l 663 649 q 651 575 663 611 q 617 507 639 539 q 565 450 596 475 q 494 411 533 425 l 726 0 l 594 0 l 375 389 l 289 389 q 222 392 260 389 l 222 0 l 104 0 l 104 921 q 224 925 163 924 q 344 926 285 926 m 342 828 q 284 827 318 828 q 222 825 250 826 l 222 497 q 296 493 269 494 q 346 492 322 492 q 499 534 453 492 q 544 651 544 576 l 544 678 q 498 790 544 753 q 342 828 451 828 z "},"S":{"ha":633,"x_min":63,"x_max":592,"o":"m 422 494 q 501 459 468 479 q 553 410 533 439 q 583 344 574 382 q 592 256 592 307 l 592 229 q 576 124 592 169 q 523 47 560 78 q 428 -1 486 15 q 286 -17 369 -17 q 199 -10 253 -17 q 83 11 144 -3 l 86 118 q 195 97 143 104 q 283 90 247 90 q 432 123 390 90 q 474 219 474 156 l 474 265 q 453 340 474 314 q 376 383 432 365 l 233 431 q 152 465 185 446 q 100 513 119 485 q 72 578 81 540 q 63 667 63 615 l 63 682 q 126 863 63 800 q 333 926 189 926 q 423 920 369 926 q 528 904 476 914 l 525 800 q 426 816 476 810 q 333 822 375 822 q 215 790 250 822 q 181 693 181 757 l 181 657 q 185 615 181 632 q 201 583 189 597 q 236 559 214 569 q 293 538 258 549 l 422 494 z "},"T":{"ha":715,"x_min":35,"x_max":681,"o":"m 35 803 l 35 910 l 681 910 l 681 803 l 417 803 l 417 0 l 299 0 l 299 803 l 35 803 z "},"U":{"ha":800,"x_min":104,"x_max":696,"o":"m 696 910 l 696 288 q 622 62 696 140 q 400 -17 549 -17 q 180 58 256 -17 q 104 285 104 133 l 104 910 l 222 910 l 222 269 q 269 133 222 178 q 400 88 315 88 q 531 133 485 88 q 578 269 578 178 l 578 910 l 696 910 z "},"V":{"ha":736,"x_min":21,"x_max":715,"o":"m 446 0 l 290 0 l 21 910 l 146 910 l 368 114 l 590 910 l 715 910 l 446 0 z "},"W":{"ha":1178,"x_min":35,"x_max":1143,"o":"m 936 0 l 778 0 l 589 775 l 401 0 l 243 0 l 35 910 l 160 910 l 326 129 l 508 910 l 669 910 l 853 129 l 1018 910 l 1143 910 l 936 0 z "},"X":{"ha":726,"x_min":21,"x_max":706,"o":"m 157 0 l 21 0 l 288 469 l 38 910 l 179 910 l 369 563 l 560 910 l 690 910 l 443 467 l 706 0 l 563 0 l 360 372 l 157 0 z "},"Y":{"ha":688,"x_min":21,"x_max":667,"o":"m 403 313 l 403 0 l 285 0 l 285 313 l 21 910 l 156 910 l 344 438 l 535 910 l 667 910 l 403 313 z "},"Z":{"ha":688,"x_min":63,"x_max":611,"o":"m 63 0 l 63 93 l 474 803 l 71 803 l 71 910 l 611 910 l 611 817 l 200 107 l 611 107 l 611 0 l 63 0 z "},"[":{"ha":722,"x_min":218,"x_max":503,"o":"m 218 -161 l 218 1089 l 503 1089 l 503 992 l 336 992 l 336 -64 l 503 -64 l 503 -161 l 218 -161 z "},"\\":{"ha":722,"x_min":160,"x_max":563,"o":"m 444 0 l 160 949 l 278 949 l 563 0 l 444 0 z "},"]":{"ha":722,"x_min":218,"x_max":503,"o":"m 218 -161 l 218 -64 l 385 -64 l 385 992 l 218 992 l 218 1089 l 503 1089 l 503 -161 l 218 -161 z "},"^":{"ha":688,"x_min":90,"x_max":597,"o":"m 482 560 l 343 839 l 206 560 l 90 560 l 292 949 l 396 949 l 597 560 l 482 560 z "},"_":{"ha":847,"x_min":90,"x_max":757,"o":"m 90 -257 l 90 -167 l 757 -167 l 757 -257 l 90 -257 z "},"`":{"ha":535,"x_min":149,"x_max":372,"o":"m 149 951 l 267 951 l 372 758 l 281 758 l 149 951 z "},"a":{"ha":651,"x_min":76,"x_max":547,"o":"m 547 0 l 435 0 l 435 108 q 253 -17 353 -17 q 125 38 174 -17 q 76 190 76 93 l 76 229 q 91 307 76 271 q 133 369 106 343 q 199 410 160 394 q 286 425 238 425 q 357 419 317 425 q 429 407 397 414 l 429 481 q 402 568 429 543 q 318 593 375 593 q 272 591 297 593 q 222 585 247 589 q 173 578 197 582 q 131 572 149 575 l 131 674 q 229 688 176 681 q 318 694 282 694 q 492 642 438 694 q 547 471 547 589 l 547 0 m 279 89 q 356 121 315 89 q 429 214 396 153 l 429 321 q 369 328 401 326 q 315 331 338 331 q 226 299 257 331 q 196 214 196 268 l 196 199 q 219 117 196 146 q 279 89 243 89 z "},"b":{"ha":682,"x_min":104,"x_max":585,"o":"m 222 588 q 305 667 258 639 q 404 694 351 694 q 538 635 490 694 q 585 458 585 576 l 585 239 q 526 48 585 113 q 340 -17 468 -17 q 160 47 215 -17 q 104 236 104 110 l 104 949 l 222 949 l 222 588 m 376 589 q 294 558 336 589 q 222 475 253 528 l 222 222 q 254 117 222 153 q 340 82 286 82 q 467 225 467 82 l 467 442 q 442 557 467 525 q 376 589 417 589 z "},"c":{"ha":561,"x_min":97,"x_max":485,"o":"m 349 -17 q 158 48 218 -17 q 97 236 97 113 l 97 442 q 158 629 97 564 q 349 694 218 694 q 412 691 385 694 q 485 681 439 688 l 482 576 q 417 587 446 583 q 349 590 389 590 q 249 554 282 590 q 215 451 215 518 l 215 228 q 251 122 215 157 q 349 88 286 88 q 417 91 389 88 q 482 101 446 94 l 485 -3 q 412 -13 439 -10 q 349 -17 385 -17 z "},"d":{"ha":682,"x_min":97,"x_max":578,"o":"m 97 463 q 147 633 97 571 q 293 694 197 694 q 383 672 338 694 q 460 625 428 649 l 460 949 l 578 949 l 578 0 l 465 0 l 465 110 q 377 15 425 47 q 275 -17 329 -17 q 143 42 189 -17 q 97 215 97 100 l 97 463 m 303 89 q 385 121 343 89 q 460 214 426 153 l 460 519 q 391 569 431 550 q 319 589 351 589 q 243 555 271 589 q 215 446 215 521 l 215 231 q 240 120 215 151 q 303 89 264 89 z "},"e":{"ha":649,"x_min":97,"x_max":572,"o":"m 97 446 q 155 631 97 567 q 333 694 213 694 q 512 631 451 694 q 572 446 572 568 l 572 303 l 215 303 l 215 221 q 249 119 215 150 q 356 88 282 88 q 404 90 378 88 q 458 97 431 93 q 509 104 485 100 q 551 113 533 108 l 546 8 q 448 -8 500 0 q 356 -17 396 -17 q 156 44 215 -17 q 97 228 97 104 l 97 446 m 215 397 l 454 397 l 454 460 q 421 563 454 529 q 333 596 388 596 q 248 563 281 596 q 215 464 215 529 l 215 397 z "},"f":{"ha":463,"x_min":49,"x_max":442,"o":"m 146 749 q 201 912 147 858 q 354 965 254 965 q 403 962 379 965 q 442 956 428 958 l 442 861 q 401 866 422 864 q 356 868 381 868 q 290 842 315 868 q 264 767 264 817 l 264 678 l 389 678 l 389 581 l 264 581 l 264 0 l 146 0 l 146 581 l 49 581 l 49 678 l 146 678 l 146 749 z "},"g":{"ha":675,"x_min":56,"x_max":640,"o":"m 92 -142 q 194 -166 136 -157 q 299 -175 251 -175 q 386 -170 353 -175 q 438 -155 419 -165 q 461 -127 456 -144 q 467 -83 467 -110 l 467 -71 q 400 -1 467 -6 l 192 13 q 90 51 125 17 q 56 140 56 85 l 56 168 q 118 279 56 232 q 84 348 94 307 q 74 447 74 389 l 74 478 q 133 634 74 574 q 313 694 192 694 q 372 690 344 694 q 424 676 400 685 l 640 679 l 640 575 l 522 579 q 544 529 538 557 q 550 474 550 501 l 550 443 q 535 353 550 394 q 489 281 519 311 q 415 235 458 251 q 313 218 371 218 q 194 232 240 218 q 164 176 164 206 l 164 168 q 178 136 164 149 q 232 121 192 124 l 439 106 q 542 58 503 100 q 582 -49 582 17 l 582 -100 q 570 -174 582 -142 q 527 -228 558 -207 q 441 -262 496 -250 q 299 -274 386 -274 q 202 -267 258 -274 q 96 -249 146 -260 l 92 -142 m 192 435 q 197 374 192 397 q 214 339 201 351 q 248 322 226 326 q 304 317 269 317 q 401 347 369 317 q 432 435 432 378 l 432 476 q 427 533 432 508 q 415 578 422 558 q 372 590 400 585 q 313 596 343 596 q 223 567 254 596 q 192 481 192 538 l 192 435 z "},"h":{"ha":682,"x_min":104,"x_max":585,"o":"m 104 0 l 104 949 l 222 949 l 222 588 q 303 667 258 639 q 400 694 347 694 q 537 635 489 694 q 585 463 585 575 l 585 0 l 467 0 l 467 446 q 442 553 467 522 q 376 585 417 585 q 294 554 336 585 q 222 471 253 524 l 222 0 l 104 0 z "},"i":{"ha":340,"x_min":93,"x_max":247,"o":"m 111 0 l 111 678 l 229 678 l 229 0 l 111 0 m 247 861 q 169 799 247 799 q 93 861 93 799 l 93 901 q 169 965 93 965 q 247 901 247 965 l 247 861 z "},"j":{"ha":326,"x_min":-74,"x_max":240,"o":"m 104 678 l 222 678 l 222 -67 q 172 -222 222 -171 q 10 -274 121 -274 q -39 -271 -14 -274 q -74 -265 -64 -268 l -74 -167 q -37 -170 -62 -168 q 15 -172 -11 -172 q 104 -74 104 -172 l 104 678 m 240 861 q 163 799 240 799 q 86 861 86 799 l 86 901 q 163 965 86 965 q 240 901 240 965 l 240 861 z "},"k":{"ha":628,"x_min":104,"x_max":593,"o":"m 104 0 l 104 949 l 222 949 l 222 381 l 444 678 l 576 678 l 346 381 l 593 0 l 451 0 l 222 364 l 222 0 l 104 0 z "},"l":{"ha":326,"x_min":104,"x_max":222,"o":"m 104 0 l 104 949 l 222 949 l 222 0 l 104 0 z "},"m":{"ha":1031,"x_min":104,"x_max":933,"o":"m 104 0 l 104 678 l 215 678 l 215 576 q 298 664 251 633 q 397 694 344 694 q 564 567 525 694 q 649 662 601 629 q 753 694 697 694 q 887 635 840 694 q 933 463 933 575 l 933 0 l 815 0 l 815 446 q 792 553 815 521 q 729 585 768 585 q 649 554 690 585 q 578 471 608 524 l 578 0 l 460 0 l 460 446 q 436 553 460 521 q 374 585 413 585 q 294 554 335 585 q 222 471 253 524 l 222 0 l 104 0 z "},"n":{"ha":682,"x_min":104,"x_max":585,"o":"m 104 0 l 104 678 l 215 678 l 215 576 q 299 664 251 633 q 400 694 346 694 q 537 635 489 694 q 585 463 585 575 l 585 0 l 467 0 l 467 446 q 442 553 467 521 q 376 585 417 585 q 294 554 336 585 q 222 471 253 524 l 222 0 l 104 0 z "},"o":{"ha":683,"x_min":97,"x_max":586,"o":"m 468 453 q 435 560 468 524 q 342 596 401 596 q 249 559 282 596 q 215 451 215 522 l 215 226 q 249 119 215 156 q 342 82 282 82 q 435 119 401 82 q 468 226 468 156 l 468 453 m 586 236 q 528 51 586 118 q 342 -17 469 -17 q 156 51 214 -17 q 97 236 97 118 l 97 442 q 156 627 97 560 q 342 694 214 694 q 528 627 469 694 q 586 442 586 560 l 586 236 z "},"p":{"ha":681,"x_min":104,"x_max":583,"o":"m 104 -257 l 104 678 l 215 678 l 215 579 q 298 665 251 635 q 399 694 344 694 q 535 636 486 694 q 583 463 583 578 l 583 215 q 527 44 583 106 q 375 -17 471 -17 q 294 -1 336 -17 q 222 32 253 14 l 222 -257 l 104 -257 m 375 589 q 294 560 335 589 q 222 478 253 531 l 222 138 q 288 101 253 114 q 351 88 322 88 q 465 232 465 88 l 465 446 q 440 557 465 525 q 375 589 415 589 z "},"q":{"ha":682,"x_min":97,"x_max":578,"o":"m 97 463 q 147 633 97 571 q 293 694 197 694 q 387 669 340 694 q 465 621 433 644 l 465 678 l 578 678 l 578 -257 l 460 -257 l 460 101 q 374 13 419 43 q 275 -17 328 -17 q 143 42 189 -17 q 97 215 97 100 l 97 463 m 303 89 q 385 121 343 89 q 460 214 426 153 l 460 519 q 391 569 431 550 q 319 589 351 589 q 243 555 271 589 q 215 446 215 521 l 215 231 q 240 120 215 151 q 303 89 264 89 z "},"r":{"ha":479,"x_min":104,"x_max":431,"o":"m 104 0 l 104 678 l 215 678 l 215 576 q 299 664 251 633 q 400 694 346 694 q 431 692 419 694 l 431 558 q 408 562 419 561 q 376 563 396 563 q 292 540 332 563 q 222 465 253 517 l 222 0 l 104 0 z "},"s":{"ha":540,"x_min":63,"x_max":499,"o":"m 188 325 q 94 390 125 349 q 63 483 63 431 l 63 501 q 116 646 63 597 q 297 694 169 694 q 363 691 329 694 q 443 678 397 688 l 440 578 q 303 594 367 594 q 204 574 229 594 q 179 513 179 554 l 179 501 q 193 458 179 474 q 243 428 207 443 l 374 374 q 467 306 435 349 q 499 211 499 263 l 499 178 q 444 33 499 82 q 257 -17 389 -17 q 81 6 178 -17 l 83 110 q 257 88 172 88 q 357 106 332 88 q 382 167 382 125 l 382 186 q 368 239 382 218 q 322 272 354 260 l 188 325 z "},"t":{"ha":476,"x_min":21,"x_max":442,"o":"m 118 581 l 21 581 l 21 678 l 118 678 l 140 858 l 236 858 l 236 678 l 417 678 l 417 581 l 236 581 l 236 183 q 258 108 236 131 q 325 85 281 85 q 388 88 356 85 q 442 96 421 92 l 442 -3 q 390 -12 418 -8 q 331 -17 363 -17 q 169 32 221 -17 q 118 193 118 81 l 118 581 z "},"u":{"ha":689,"x_min":104,"x_max":585,"o":"m 585 678 l 585 0 l 474 0 l 474 97 q 390 13 436 42 q 289 -17 343 -17 q 154 40 204 -17 q 104 215 104 97 l 104 678 l 222 678 l 222 236 q 247 126 222 160 q 313 93 272 93 q 394 123 353 93 q 467 206 435 153 l 467 678 l 585 678 z "},"v":{"ha":614,"x_min":21,"x_max":593,"o":"m 383 0 l 229 0 l 21 678 l 146 678 l 307 86 l 468 678 l 593 678 l 383 0 z "},"w":{"ha":956,"x_min":35,"x_max":921,"o":"m 768 0 l 619 0 l 478 575 l 335 0 l 186 0 l 35 678 l 160 678 l 265 104 l 401 678 l 554 678 l 689 104 l 796 678 l 921 678 l 768 0 z "},"x":{"ha":640,"x_min":35,"x_max":606,"o":"m 319 264 l 169 0 l 35 0 l 244 350 l 49 678 l 183 678 l 319 436 l 456 678 l 590 678 l 394 350 l 606 0 l 471 0 l 319 264 z "},"y":{"ha":619,"x_min":21,"x_max":599,"o":"m 288 -257 l 169 -257 l 258 0 l 214 0 l 21 678 l 150 678 l 296 85 l 476 678 l 599 678 l 288 -257 z "},"z":{"ha":592,"x_min":63,"x_max":515,"o":"m 63 0 l 63 90 l 374 574 l 69 574 l 69 678 l 515 678 l 515 588 l 206 104 l 515 104 l 515 0 l 63 0 z "},"{":{"ha":722,"x_min":164,"x_max":526,"o":"m 289 304 q 269 392 289 368 q 199 415 249 415 l 164 415 l 164 513 l 199 513 q 269 535 249 513 q 289 624 289 558 l 289 875 q 299 983 289 940 q 337 1049 310 1025 q 410 1083 364 1074 q 526 1093 456 1093 l 526 996 q 467 992 490 996 q 431 976 444 988 q 412 946 417 965 q 407 894 407 926 l 407 624 q 388 515 407 553 q 326 464 368 478 q 388 412 369 449 q 407 304 407 375 l 407 56 q 411 -8 407 17 q 428 -45 415 -32 q 464 -63 440 -58 q 526 -68 488 -68 l 526 -165 q 411 -155 457 -165 q 338 -119 365 -144 q 300 -50 311 -93 q 289 60 289 -7 l 289 304 z "},"|":{"ha":722,"x_min":301,"x_max":419,"o":"m 301 -156 l 301 1108 l 419 1108 l 419 -156 l 301 -156 z "},"}":{"ha":722,"x_min":194,"x_max":557,"o":"m 432 60 q 421 -50 432 -7 q 383 -119 410 -93 q 310 -155 356 -144 q 194 -165 264 -165 l 194 -68 q 257 -63 233 -68 q 293 -45 281 -58 q 310 -8 306 -32 q 314 56 314 17 l 314 304 q 333 412 314 375 q 394 464 351 449 q 333 515 353 478 q 314 624 314 553 l 314 894 q 309 946 314 926 q 290 976 304 965 q 253 992 276 988 q 194 996 231 996 l 194 1093 q 311 1083 265 1093 q 384 1049 357 1074 q 422 983 411 1025 q 432 875 432 940 l 432 624 q 452 535 432 558 q 522 513 472 513 l 557 513 l 557 415 l 522 415 q 452 392 472 415 q 432 304 432 368 l 432 60 z "},"~":{"ha":722,"x_min":115,"x_max":607,"o":"m 607 388 q 568 368 590 376 q 524 355 549 361 q 468 349 499 349 q 406 355 431 349 q 358 368 381 361 q 311 381 336 375 q 251 388 286 388 q 208 382 232 388 q 164 369 185 376 q 115 353 139 363 l 115 450 q 154 469 132 461 q 199 483 174 476 q 254 489 224 489 q 317 483 292 489 q 365 469 342 476 q 412 456 388 463 q 471 450 436 450 q 514 455 490 450 q 558 467 538 460 q 607 485 583 474 l 607 388 z "}," ":{"ha":417,"x_min":0,"x_max":0,"o":""},"¡":{"ha":293,"x_min":69,"x_max":224,"o":"m 90 431 l 81 -257 l 213 -257 l 203 431 l 90 431 m 224 663 q 146 725 224 725 q 69 663 69 725 l 69 622 q 146 558 69 558 q 224 622 224 558 l 224 663 z "},"¢":{"ha":722,"x_min":167,"x_max":554,"o":"m 347 -122 l 347 -10 q 210 68 254 6 q 167 236 167 131 l 167 442 q 210 608 167 546 q 347 688 254 671 l 347 800 l 451 800 l 451 693 q 497 689 475 692 q 554 681 519 686 l 551 576 q 487 587 515 583 q 418 590 458 590 q 318 554 351 590 q 285 451 285 518 l 285 228 q 320 122 285 157 q 418 88 356 88 q 487 91 458 88 q 551 101 515 94 l 554 -3 q 497 -11 519 -8 q 451 -15 475 -14 l 451 -122 l 347 -122 z "},"£":{"ha":722,"x_min":99,"x_max":622,"o":"m 314 521 l 446 521 l 446 424 l 314 424 l 314 256 q 299 160 314 196 q 257 103 285 125 l 622 103 l 622 0 l 140 0 l 140 83 q 183 155 169 119 q 196 231 196 190 l 196 424 l 99 424 l 99 521 l 196 521 l 196 635 q 252 799 196 746 q 428 851 308 851 q 496 845 460 851 q 560 831 532 839 l 560 736 q 507 749 539 743 q 446 754 475 754 q 342 727 371 754 q 314 642 314 700 l 314 521 z "},"¤":{"ha":722,"x_min":63,"x_max":660,"o":"m 582 129 l 496 217 q 358 183 439 183 q 224 214 279 183 l 140 129 l 63 207 l 149 292 q 125 350 133 319 q 117 421 117 381 l 117 449 q 123 513 117 485 q 143 569 129 542 l 63 649 l 140 726 l 215 650 q 358 686 275 686 q 504 647 443 686 l 582 726 l 660 649 l 575 565 q 599 449 599 517 l 599 421 q 592 353 599 382 q 569 296 585 324 l 660 207 l 582 129 m 485 449 q 456 545 485 506 q 358 585 428 585 q 260 546 289 585 q 231 449 231 507 l 231 421 q 260 323 231 363 q 358 283 289 283 q 456 323 428 283 q 485 421 485 363 l 485 449 z "},"¥":{"ha":722,"x_min":38,"x_max":683,"o":"m 419 108 l 419 0 l 301 0 l 301 108 l 169 108 l 169 206 l 301 206 l 301 263 l 169 263 l 169 360 l 261 360 l 38 835 l 169 835 l 361 389 l 551 835 l 683 835 l 460 360 l 550 360 l 550 263 l 419 263 l 419 206 l 550 206 l 550 108 l 419 108 z "},"¦":{"ha":722,"x_min":301,"x_max":419,"o":"m 301 567 l 301 1113 l 419 1113 l 419 567 l 301 567 m 301 -160 l 301 386 l 419 386 l 419 -160 l 301 -160 z "},"§":{"ha":560,"x_min":21,"x_max":539,"o":"m 376 64 q 364 121 376 100 q 319 153 351 142 l 171 204 q 55 271 89 232 q 21 372 21 310 l 21 406 q 31 473 21 442 q 60 528 42 504 q 103 566 78 551 q 157 585 128 581 q 89 639 115 600 q 63 733 63 678 l 63 772 q 115 917 63 868 q 294 965 167 965 q 360 962 328 965 q 439 949 393 958 l 436 850 q 367 863 400 858 q 300 867 333 867 q 208 847 232 867 q 183 783 183 826 l 183 738 q 196 691 183 708 q 240 661 208 674 l 389 604 q 504 532 469 574 q 539 438 539 490 l 539 394 q 505 285 539 332 q 408 226 471 239 q 473 173 449 211 q 497 82 497 135 l 497 29 q 442 -117 497 -68 q 254 -165 386 -165 q 168 -160 207 -165 q 83 -144 129 -154 l 86 -40 q 163 -55 122 -49 q 254 -61 203 -61 q 351 -43 326 -61 q 376 18 376 -25 l 376 64 m 282 525 q 177 490 213 524 q 142 408 142 457 l 142 374 q 159 333 142 350 q 226 300 176 317 l 290 279 q 386 313 354 282 q 418 392 418 344 l 418 424 q 333 510 418 485 l 282 525 z "},"¨":{"ha":599,"x_min":104,"x_max":494,"o":"m 256 863 q 179 801 256 801 q 124 817 143 801 q 104 863 104 833 l 104 903 q 124 950 104 935 q 179 965 143 965 q 256 903 256 965 l 256 863 m 494 863 q 418 801 494 801 q 343 863 343 801 l 343 903 q 418 965 343 965 q 494 903 494 965 l 494 863 z "},"©":{"ha":897,"x_min":97,"x_max":800,"o":"m 701 578 q 636 713 701 661 q 449 764 571 764 q 261 712 326 764 q 196 576 196 660 l 196 258 q 261 123 196 175 q 449 71 326 71 q 636 123 571 71 q 701 258 701 175 l 701 578 m 800 274 q 781 156 800 210 q 718 63 761 103 q 608 1 675 24 q 449 -21 542 -21 q 288 1 354 -21 q 179 63 222 24 q 117 156 136 103 q 97 274 97 210 l 97 561 q 117 678 97 625 q 179 772 136 732 q 288 833 222 811 q 449 856 354 856 q 608 833 542 856 q 718 772 675 811 q 781 678 761 732 q 800 561 800 625 l 800 274 m 468 179 q 276 385 276 179 l 276 463 q 324 615 276 563 q 468 667 372 667 q 523 664 494 667 q 576 657 551 661 l 574 565 q 523 570 547 568 q 468 572 499 572 q 410 547 432 572 q 389 463 389 521 l 389 386 q 410 301 389 329 q 468 274 432 274 q 523 276 499 274 q 574 281 547 278 l 576 189 q 517 181 540 183 q 468 179 494 179 z "},"ª":{"ha":722,"x_min":125,"x_max":596,"o":"m 596 314 l 483 314 l 483 422 q 301 297 401 297 q 173 347 221 297 q 125 483 125 397 l 125 522 q 139 590 125 558 q 180 647 153 622 q 246 685 207 671 q 335 699 285 699 q 406 693 365 699 q 478 681 446 688 l 478 717 q 451 804 478 779 q 367 829 424 829 q 321 827 346 829 q 271 822 296 825 q 222 815 246 818 q 179 808 197 811 l 179 906 q 278 919 225 913 q 367 926 331 926 q 541 874 486 926 q 596 703 596 821 l 596 314 m 125 0 l 125 101 l 596 101 l 596 0 l 125 0 m 328 403 q 404 426 364 403 q 478 508 444 450 l 478 594 q 418 602 450 600 q 364 604 386 604 q 275 578 306 604 q 244 507 244 551 l 244 492 q 268 426 244 450 q 328 403 292 403 z "},"«":{"ha":678,"x_min":90,"x_max":588,"o":"m 351 678 l 222 442 l 351 206 l 229 206 l 90 442 l 229 678 l 351 678 m 588 678 l 458 442 l 588 206 l 465 206 l 326 442 l 465 678 l 588 678 z "},"¬":{"ha":722,"x_min":110,"x_max":611,"o":"m 506 157 l 506 368 l 110 368 l 110 465 l 611 465 l 611 157 l 506 157 z "},"­":{"ha":486,"x_min":90,"x_max":396,"o":"m 90 365 l 90 456 l 396 456 l 396 365 l 90 365 z "},"®":{"ha":744,"x_min":104,"x_max":640,"o":"m 640 665 q 579 481 640 549 q 372 413 518 413 q 165 481 226 413 q 104 665 104 549 l 104 713 q 165 897 104 829 q 372 965 226 965 q 579 897 518 965 q 640 713 640 829 l 640 665 m 569 726 q 524 857 569 814 q 372 900 479 900 q 220 856 265 900 q 175 725 175 811 l 175 653 q 220 522 175 567 q 372 478 265 478 q 524 522 479 478 q 569 653 569 567 l 569 726 m 271 529 l 271 853 q 327 855 299 854 q 374 856 356 856 q 472 828 444 856 q 500 758 500 801 l 500 743 q 483 691 500 714 q 436 656 465 668 l 511 529 l 442 529 l 375 646 l 331 646 l 331 529 l 271 529 m 378 800 q 355 799 371 800 q 331 797 339 799 l 331 703 q 358 701 346 701 l 381 701 q 426 713 413 701 q 439 744 439 725 l 439 757 q 425 790 439 779 q 378 800 411 800 z "},"¯":{"ha":535,"x_min":118,"x_max":417,"o":"m 118 842 l 118 946 l 417 946 l 417 842 l 118 842 z "},"°":{"ha":833,"x_min":107,"x_max":567,"o":"m 567 694 q 510 515 567 576 q 338 454 453 454 q 165 515 222 454 q 107 694 107 576 l 107 725 q 165 904 107 843 q 338 965 222 965 q 510 904 453 965 q 567 725 567 843 l 567 694 m 454 725 q 424 833 454 799 q 338 867 394 867 q 250 833 281 867 q 219 725 219 799 l 219 694 q 250 587 219 621 q 338 553 281 553 q 424 587 393 553 q 454 694 454 621 l 454 725 z "},"±":{"ha":722,"x_min":113,"x_max":608,"o":"m 113 0 l 113 97 l 607 97 l 607 0 l 113 0 m 414 368 l 414 157 l 308 157 l 308 368 l 114 368 l 114 467 l 308 467 l 308 678 l 414 678 l 414 467 l 608 467 l 608 368 l 414 368 z "},"²":{"ha":542,"x_min":93,"x_max":449,"o":"m 242 758 q 172 751 210 758 q 106 735 133 744 l 106 825 q 177 841 140 835 q 242 847 214 847 q 399 808 351 847 q 447 697 447 769 l 447 672 q 429 584 447 625 q 360 488 411 543 l 225 343 l 449 343 l 449 251 l 93 251 l 93 335 l 299 571 q 321 598 313 586 q 334 621 329 610 q 340 644 339 632 q 342 671 342 656 l 342 693 q 319 742 342 726 q 242 758 297 758 z "},"³":{"ha":542,"x_min":103,"x_max":439,"o":"m 235 763 q 167 758 204 763 q 103 749 131 753 l 103 835 q 172 844 138 840 q 235 847 207 847 q 378 807 332 847 q 425 697 425 767 l 425 688 q 406 611 425 642 q 342 560 386 581 q 414 503 389 540 q 439 419 439 467 l 439 410 q 388 288 439 335 q 238 240 338 240 q 174 244 211 240 q 103 253 138 247 l 103 338 q 170 330 131 333 q 240 326 210 326 q 308 347 286 326 q 329 404 329 368 l 329 422 q 306 489 329 467 q 224 511 282 511 l 143 511 l 143 593 l 224 593 q 297 614 276 593 q 318 679 318 635 l 318 697 q 299 747 318 732 q 235 763 279 763 z "},"´":{"ha":432,"x_min":104,"x_max":328,"o":"m 196 758 l 104 758 l 210 951 l 328 951 l 196 758 z "},"µ":{"ha":722,"x_min":121,"x_max":601,"o":"m 121 -257 l 121 678 l 239 678 l 239 236 q 264 126 239 160 q 329 93 289 93 q 410 123 369 93 q 483 206 451 153 l 483 678 l 601 678 l 601 0 l 490 0 l 490 97 q 408 13 453 42 q 319 -17 364 -17 q 239 3 269 -17 l 239 -257 l 121 -257 z "},"¶":{"ha":758,"x_min":28,"x_max":654,"o":"m 389 949 l 389 -257 l 269 -257 l 269 435 l 200 435 q 72 476 117 435 q 28 601 28 518 l 28 778 q 70 903 28 857 q 200 949 113 949 l 389 949 m 654 949 l 654 -257 l 535 -257 l 535 949 l 654 949 m 142 636 q 158 560 142 581 q 214 539 175 539 l 269 539 l 269 847 l 214 847 q 158 827 175 847 q 142 750 142 807 l 142 636 z "},"·":{"ha":307,"x_min":76,"x_max":231,"o":"m 231 325 q 153 263 231 263 q 76 325 76 263 l 76 365 q 153 429 76 429 q 231 365 231 429 l 231 325 z "},"¸":{"ha":415,"x_min":64,"x_max":264,"o":"m 264 -167 q 132 -274 264 -274 q 99 -272 115 -274 q 64 -267 83 -269 l 64 -193 q 91 -197 79 -196 q 114 -199 103 -199 q 158 -190 144 -199 q 171 -165 171 -181 l 171 -147 q 158 -119 169 -126 q 124 -111 147 -111 l 82 -111 l 82 -82 l 119 39 l 207 39 l 178 -57 l 192 -57 q 242 -81 221 -57 q 264 -146 264 -106 l 264 -167 z "},"¹":{"ha":542,"x_min":81,"x_max":460,"o":"m 110 251 l 110 343 l 238 343 l 238 731 l 101 676 l 81 769 l 258 836 l 349 836 l 349 343 l 460 343 l 460 251 l 110 251 z "},"º":{"ha":722,"x_min":117,"x_max":606,"o":"m 124 0 l 124 101 l 599 101 l 599 0 l 124 0 m 488 685 q 454 792 488 756 q 361 828 421 828 q 268 791 301 828 q 235 683 235 754 l 235 542 q 268 434 235 471 q 361 397 301 397 q 454 434 421 397 q 488 542 488 471 l 488 685 m 606 551 q 544 362 606 425 q 361 299 482 299 q 179 362 242 299 q 117 551 117 425 l 117 674 q 176 860 117 794 q 361 926 235 926 q 547 860 488 926 q 606 674 606 794 l 606 551 z "},"»":{"ha":678,"x_min":90,"x_max":588,"o":"m 449 678 l 588 442 l 449 206 l 326 206 l 456 442 l 326 678 l 449 678 m 213 678 l 351 442 l 213 206 l 90 206 l 219 442 l 90 678 l 213 678 z "},"¼":{"ha":1415,"x_min":81,"x_max":1369,"o":"m 432 0 l 856 835 l 971 835 l 547 0 l 432 0 m 1164 585 l 1035 214 l 1186 214 l 1186 397 l 1292 397 l 1292 214 l 1369 214 l 1369 125 l 1292 125 l 1292 0 l 1185 0 l 1185 125 l 947 125 l 919 183 l 1064 585 l 1164 585 m 110 251 l 110 343 l 238 343 l 238 731 l 101 676 l 81 769 l 258 836 l 349 836 l 349 343 l 460 343 l 460 251 l 110 251 z "},"½":{"ha":1404,"x_min":81,"x_max":1311,"o":"m 432 0 l 856 835 l 971 835 l 547 0 l 432 0 m 1104 507 q 1034 500 1072 507 q 968 483 996 493 l 968 574 q 1040 590 1003 583 q 1104 596 1076 596 q 1262 557 1214 596 q 1310 446 1310 518 l 1310 421 q 1292 333 1310 374 q 1222 236 1274 292 l 1088 92 l 1311 92 l 1311 0 l 956 0 l 956 83 l 1161 319 q 1183 347 1175 335 q 1197 369 1192 358 q 1203 392 1201 381 q 1204 419 1204 404 l 1204 442 q 1182 491 1204 475 q 1104 507 1160 507 m 110 251 l 110 343 l 238 343 l 238 731 l 101 676 l 81 769 l 258 836 l 349 836 l 349 343 l 460 343 l 460 251 l 110 251 z "},"¾":{"ha":1389,"x_min":103,"x_max":1343,"o":"m 406 0 l 829 835 l 944 835 l 521 0 l 406 0 m 1138 585 l 1008 214 l 1160 214 l 1160 397 l 1265 397 l 1265 214 l 1343 214 l 1343 125 l 1265 125 l 1265 0 l 1158 0 l 1158 125 l 921 125 l 893 183 l 1038 585 l 1138 585 m 235 763 q 167 758 204 763 q 103 749 131 753 l 103 835 q 172 844 138 840 q 235 847 207 847 q 378 807 332 847 q 425 697 425 767 l 425 688 q 406 611 425 642 q 342 560 386 581 q 414 503 389 540 q 439 419 439 467 l 439 410 q 388 288 439 335 q 238 240 338 240 q 174 244 211 240 q 103 253 138 247 l 103 338 q 170 330 131 333 q 240 326 210 326 q 308 347 286 326 q 329 404 329 368 l 329 422 q 306 489 329 467 q 224 511 282 511 l 143 511 l 143 593 l 224 593 q 297 614 276 593 q 318 679 318 635 l 318 697 q 299 747 318 732 q 235 763 279 763 z "},"¿":{"ha":549,"x_min":76,"x_max":514,"o":"m 339 -179 q 428 -171 379 -179 q 514 -154 478 -162 l 514 -251 q 418 -267 468 -261 q 332 -274 368 -274 q 135 -223 193 -274 q 76 -82 76 -172 l 76 -47 q 104 72 76 15 q 197 196 132 128 l 243 246 q 261 267 254 257 q 272 289 268 278 q 278 315 276 300 q 281 351 281 331 l 281 414 l 393 414 l 393 369 q 391 313 393 336 q 383 272 389 290 q 367 238 378 254 q 338 200 356 221 l 257 106 q 226 65 238 83 q 207 29 214 46 q 197 -8 200 11 q 194 -50 194 -26 l 194 -81 q 224 -155 194 -131 q 339 -179 254 -179 m 257 646 q 335 708 257 708 q 411 646 411 708 l 411 606 q 335 542 411 542 q 257 606 257 542 l 257 646 z "},"À":{"ha":744,"x_min":21,"x_max":724,"o":"m 536 211 l 201 211 l 142 0 l 21 0 l 299 910 l 444 910 l 724 0 l 596 0 l 536 211 m 231 317 l 506 317 l 369 801 l 231 317 m 231 1151 l 354 1151 l 446 986 l 349 986 l 231 1151 z "},"Á":{"ha":744,"x_min":21,"x_max":724,"o":"m 536 211 l 201 211 l 142 0 l 21 0 l 299 910 l 444 910 l 724 0 l 596 0 l 536 211 m 231 317 l 506 317 l 369 801 l 231 317 m 382 986 l 285 986 l 376 1151 l 500 1151 l 382 986 z "},"Â":{"ha":744,"x_min":21,"x_max":724,"o":"m 536 211 l 201 211 l 142 0 l 21 0 l 299 910 l 444 910 l 724 0 l 596 0 l 536 211 m 231 317 l 506 317 l 369 801 l 231 317 m 181 988 l 181 1082 l 375 1167 l 569 1082 l 569 988 l 375 1056 l 181 988 z "},"Ã":{"ha":744,"x_min":21,"x_max":724,"o":"m 536 211 l 201 211 l 142 0 l 21 0 l 299 910 l 444 910 l 724 0 l 596 0 l 536 211 m 231 317 l 506 317 l 369 801 l 231 317 m 569 1028 q 538 1007 554 1015 q 502 992 522 999 q 458 986 482 986 q 414 992 435 986 q 372 1003 393 997 q 331 1015 351 1010 q 289 1021 310 1021 q 252 1015 271 1021 q 218 1003 233 1010 q 181 986 200 996 l 181 1083 q 213 1104 196 1094 q 248 1118 228 1111 q 292 1125 268 1125 q 342 1119 319 1125 q 385 1108 365 1114 q 423 1096 404 1101 q 461 1090 442 1090 q 497 1095 478 1090 q 532 1107 517 1100 q 569 1125 550 1114 l 569 1028 z "},"Ä":{"ha":744,"x_min":21,"x_max":724,"o":"m 536 211 l 201 211 l 142 0 l 21 0 l 299 910 l 444 910 l 724 0 l 596 0 l 536 211 m 231 317 l 506 317 l 369 801 l 231 317 m 326 1047 q 250 986 326 986 q 194 1002 214 986 q 175 1047 175 1018 l 175 1088 q 194 1135 175 1119 q 250 1150 214 1150 q 326 1088 326 1150 l 326 1047 m 565 1047 q 489 986 565 986 q 414 1047 414 986 l 414 1088 q 489 1150 414 1150 q 565 1088 565 1150 l 565 1047 z "},"Å":{"ha":744,"x_min":21,"x_max":724,"o":"m 532 972 q 513 896 532 926 q 463 850 494 865 l 724 0 l 596 0 l 536 211 l 201 211 l 142 0 l 21 0 l 281 851 q 231 897 249 867 q 213 972 213 928 q 256 1077 213 1043 q 372 1111 299 1111 q 488 1077 444 1111 q 532 972 532 1043 m 231 317 l 506 317 l 369 801 l 231 317 m 442 972 q 426 1017 442 1000 q 372 1035 411 1035 q 318 1017 333 1035 q 303 972 303 1000 q 318 927 303 944 q 372 910 333 910 q 426 927 411 910 q 442 972 442 944 z "},"Æ":{"ha":1075,"x_min":21,"x_max":985,"o":"m 506 0 l 506 211 l 236 211 l 144 0 l 21 0 l 428 910 l 985 910 l 985 803 l 624 803 l 624 515 l 957 515 l 957 410 l 624 410 l 624 107 l 985 107 l 985 0 l 506 0 m 506 317 l 506 829 l 282 317 l 506 317 z "},"Ç":{"ha":661,"x_min":97,"x_max":585,"o":"m 485 -167 q 353 -274 485 -274 q 320 -272 336 -274 q 285 -267 304 -269 l 285 -193 q 312 -197 300 -196 q 335 -199 324 -199 q 378 -190 365 -199 q 392 -165 392 -181 l 392 -147 q 379 -119 390 -126 q 344 -111 368 -111 l 303 -111 l 303 -82 l 324 -12 q 148 71 199 1 q 97 264 97 140 l 97 646 q 164 857 97 788 q 393 926 231 926 q 490 919 440 926 q 585 904 539 911 l 582 800 q 496 815 547 807 q 393 822 444 822 q 256 784 297 822 q 215 654 215 746 l 215 257 q 256 128 215 167 q 393 90 297 90 q 496 98 444 90 q 582 113 547 106 l 585 6 q 499 -8 543 -1 q 411 -17 454 -14 l 399 -57 l 413 -57 q 463 -81 442 -57 q 485 -146 485 -106 l 485 -167 z "},"È":{"ha":674,"x_min":104,"x_max":583,"o":"m 104 0 l 104 910 l 583 910 l 583 803 l 222 803 l 222 515 l 556 515 l 556 410 l 222 410 l 222 107 l 583 107 l 583 0 l 104 0 m 222 1151 l 346 1151 l 438 986 l 340 986 l 222 1151 z "},"É":{"ha":674,"x_min":104,"x_max":583,"o":"m 104 0 l 104 910 l 583 910 l 583 803 l 222 803 l 222 515 l 556 515 l 556 410 l 222 410 l 222 107 l 583 107 l 583 0 l 104 0 m 368 986 l 271 986 l 363 1151 l 486 1151 l 368 986 z "},"Ê":{"ha":674,"x_min":104,"x_max":583,"o":"m 104 0 l 104 910 l 583 910 l 583 803 l 222 803 l 222 515 l 556 515 l 556 410 l 222 410 l 222 107 l 583 107 l 583 0 l 104 0 m 172 988 l 172 1082 l 367 1167 l 561 1082 l 561 988 l 367 1056 l 172 988 z "},"Ë":{"ha":674,"x_min":104,"x_max":583,"o":"m 104 0 l 104 910 l 583 910 l 583 803 l 222 803 l 222 515 l 556 515 l 556 410 l 222 410 l 222 107 l 583 107 l 583 0 l 104 0 m 294 1047 q 218 986 294 986 q 163 1002 182 986 q 143 1047 143 1018 l 143 1088 q 163 1135 143 1119 q 218 1150 182 1150 q 294 1088 294 1150 l 294 1047 m 533 1047 q 457 986 533 986 q 382 1047 382 986 l 382 1088 q 457 1150 382 1150 q 533 1088 533 1150 l 533 1047 z "},"Ì":{"ha":326,"x_min":25,"x_max":240,"o":"m 104 0 l 104 910 l 222 910 l 222 0 l 104 0 m 25 1151 l 149 1151 l 240 986 l 143 986 l 25 1151 z "},"Í":{"ha":326,"x_min":78,"x_max":293,"o":"m 104 0 l 104 910 l 222 910 l 222 0 l 104 0 m 175 986 l 78 986 l 169 1151 l 293 1151 l 175 986 z "},"Î":{"ha":326,"x_min":-32,"x_max":357,"o":"m 104 0 l 104 910 l 222 910 l 222 0 l 104 0 m -32 988 l -32 1082 l 163 1167 l 357 1082 l 357 988 l 163 1056 l -32 988 z "},"Ï":{"ha":326,"x_min":-35,"x_max":356,"o":"m 104 0 l 104 910 l 222 910 l 222 0 l 104 0 m 117 1047 q 40 986 117 986 q -15 1002 4 986 q -35 1047 -35 1018 l -35 1088 q -15 1135 -35 1119 q 40 1150 4 1150 q 117 1088 117 1150 l 117 1047 m 356 1047 q 279 986 356 986 q 204 1047 204 986 l 204 1088 q 279 1150 204 1150 q 356 1088 356 1150 l 356 1047 z "},"Ð":{"ha":793,"x_min":7,"x_max":703,"o":"m 104 421 l 7 421 l 7 518 l 104 518 l 104 921 q 215 925 151 924 q 358 926 278 926 q 613 833 524 926 q 703 563 703 740 l 703 335 q 615 74 703 165 q 351 -17 526 -17 q 225 -15 281 -17 q 104 -8 169 -12 l 104 421 m 222 518 l 410 518 l 410 421 l 222 421 l 222 93 q 351 85 303 85 q 520 145 456 85 q 585 325 585 206 l 585 571 q 522 763 585 700 q 351 826 460 826 q 286 826 318 826 q 222 824 254 825 l 222 518 z "},"Ñ":{"ha":808,"x_min":104,"x_max":704,"o":"m 521 0 l 221 768 l 221 0 l 104 0 l 104 910 l 293 910 l 588 142 l 588 910 l 704 910 l 704 0 l 521 0 m 631 1028 q 599 1007 615 1015 q 563 992 583 999 q 519 986 543 986 q 475 992 496 986 q 433 1003 454 997 q 392 1015 413 1010 q 350 1021 371 1021 q 313 1015 332 1021 q 279 1003 294 1010 q 242 986 261 996 l 242 1083 q 274 1104 257 1094 q 309 1118 289 1111 q 353 1125 329 1125 q 403 1119 381 1125 q 446 1108 426 1114 q 484 1096 465 1101 q 522 1090 503 1090 q 558 1095 539 1090 q 593 1107 578 1100 q 631 1125 611 1114 l 631 1028 z "},"Ò":{"ha":800,"x_min":97,"x_max":703,"o":"m 215 269 q 262 134 215 181 q 400 88 308 88 q 538 134 492 88 q 585 269 585 181 l 585 640 q 539 775 585 728 q 400 822 493 822 q 261 776 307 822 q 215 642 215 729 l 215 269 m 97 628 q 115 751 97 696 q 168 846 132 807 q 262 906 204 885 q 400 926 319 926 q 538 906 481 926 q 632 846 596 885 q 685 751 668 807 q 703 628 703 696 l 703 282 q 685 158 703 213 q 632 64 668 103 q 538 4 596 25 q 400 -17 481 -17 q 262 4 319 -17 q 168 64 204 25 q 115 158 132 103 q 97 282 97 213 l 97 628 m 258 1151 l 382 1151 l 474 986 l 376 986 l 258 1151 z "},"Ó":{"ha":800,"x_min":97,"x_max":703,"o":"m 215 269 q 262 134 215 181 q 400 88 308 88 q 538 134 492 88 q 585 269 585 181 l 585 640 q 539 775 585 728 q 400 822 493 822 q 261 776 307 822 q 215 642 215 729 l 215 269 m 97 628 q 115 751 97 696 q 168 846 132 807 q 262 906 204 885 q 400 926 319 926 q 538 906 481 926 q 632 846 596 885 q 685 751 668 807 q 703 628 703 696 l 703 282 q 685 158 703 213 q 632 64 668 103 q 538 4 596 25 q 400 -17 481 -17 q 262 4 319 -17 q 168 64 204 25 q 115 158 132 103 q 97 282 97 213 l 97 628 m 410 986 l 313 986 l 404 1151 l 528 1151 l 410 986 z "},"Ô":{"ha":800,"x_min":97,"x_max":703,"o":"m 215 269 q 262 134 215 181 q 400 88 308 88 q 538 134 492 88 q 585 269 585 181 l 585 640 q 539 775 585 728 q 400 822 493 822 q 261 776 307 822 q 215 642 215 729 l 215 269 m 97 628 q 115 751 97 696 q 168 846 132 807 q 262 906 204 885 q 400 926 319 926 q 538 906 481 926 q 632 846 596 885 q 685 751 668 807 q 703 628 703 696 l 703 282 q 685 158 703 213 q 632 64 668 103 q 538 4 596 25 q 400 -17 481 -17 q 262 4 319 -17 q 168 64 204 25 q 115 158 132 103 q 97 282 97 213 l 97 628 m 206 988 l 206 1082 l 400 1167 l 594 1082 l 594 988 l 400 1056 l 206 988 z "},"Õ":{"ha":800,"x_min":97,"x_max":703,"o":"m 215 269 q 262 134 215 181 q 400 88 308 88 q 538 134 492 88 q 585 269 585 181 l 585 640 q 539 775 585 728 q 400 822 493 822 q 261 776 307 822 q 215 642 215 729 l 215 269 m 97 628 q 115 751 97 696 q 168 846 132 807 q 262 906 204 885 q 400 926 319 926 q 538 906 481 926 q 632 846 596 885 q 685 751 668 807 q 703 628 703 696 l 703 282 q 685 158 703 213 q 632 64 668 103 q 538 4 596 25 q 400 -17 481 -17 q 262 4 319 -17 q 168 64 204 25 q 115 158 132 103 q 97 282 97 213 l 97 628 m 594 1028 q 563 1007 579 1015 q 527 992 547 999 q 483 986 507 986 q 439 992 460 986 q 397 1003 418 997 q 356 1015 376 1010 q 314 1021 335 1021 q 277 1015 296 1021 q 243 1003 258 1010 q 206 986 225 996 l 206 1083 q 238 1104 221 1094 q 273 1118 253 1111 q 317 1125 293 1125 q 367 1119 344 1125 q 410 1108 390 1114 q 448 1096 429 1101 q 486 1090 467 1090 q 522 1095 503 1090 q 557 1107 542 1100 q 594 1125 575 1114 l 594 1028 z "},"Ö":{"ha":800,"x_min":97,"x_max":703,"o":"m 215 269 q 262 134 215 181 q 400 88 308 88 q 538 134 492 88 q 585 269 585 181 l 585 640 q 539 775 585 728 q 400 822 493 822 q 261 776 307 822 q 215 642 215 729 l 215 269 m 97 628 q 115 751 97 696 q 168 846 132 807 q 262 906 204 885 q 400 926 319 926 q 538 906 481 926 q 632 846 596 885 q 685 751 668 807 q 703 628 703 696 l 703 282 q 685 158 703 213 q 632 64 668 103 q 538 4 596 25 q 400 -17 481 -17 q 262 4 319 -17 q 168 64 204 25 q 115 158 132 103 q 97 282 97 213 l 97 628 m 357 1047 q 281 986 357 986 q 225 1002 244 986 q 206 1047 206 1018 l 206 1088 q 225 1135 206 1119 q 281 1150 244 1150 q 357 1088 357 1150 l 357 1047 m 596 1047 q 519 986 596 986 q 444 1047 444 986 l 444 1088 q 519 1150 444 1150 q 596 1088 596 1150 l 596 1047 z "},"×":{"ha":722,"x_min":139,"x_max":582,"o":"m 432 419 l 582 269 l 507 196 l 357 344 l 211 199 l 142 268 l 288 414 l 139 564 l 213 639 l 363 489 l 510 636 l 579 567 l 432 419 z "},"Ø":{"ha":800,"x_min":49,"x_max":751,"o":"m 49 -69 l 143 94 q 108 178 119 131 q 97 282 97 225 l 97 628 q 115 751 97 696 q 168 846 132 807 q 262 906 204 885 q 400 926 319 926 q 581 886 511 926 l 633 979 l 751 979 l 658 813 q 703 628 703 742 l 703 282 q 685 158 703 213 q 632 64 668 103 q 538 4 596 25 q 400 -17 481 -17 q 299 -7 343 -17 q 221 22 256 3 l 167 -69 l 49 -69 m 215 269 q 219 215 215 240 l 532 781 q 400 822 486 822 q 261 776 307 822 q 215 642 215 729 l 215 269 m 585 640 q 581 690 585 667 l 269 126 q 400 88 314 88 q 538 134 492 88 q 585 269 585 181 l 585 640 z "},"Ù":{"ha":800,"x_min":104,"x_max":696,"o":"m 696 910 l 696 288 q 622 62 696 140 q 400 -17 549 -17 q 180 58 256 -17 q 104 285 104 133 l 104 910 l 222 910 l 222 269 q 269 133 222 178 q 400 88 315 88 q 531 133 485 88 q 578 269 578 178 l 578 910 l 696 910 m 275 1151 l 399 1151 l 490 986 l 393 986 l 275 1151 z "},"Ú":{"ha":800,"x_min":104,"x_max":696,"o":"m 696 910 l 696 288 q 622 62 696 140 q 400 -17 549 -17 q 180 58 256 -17 q 104 285 104 133 l 104 910 l 222 910 l 222 269 q 269 133 222 178 q 400 88 315 88 q 531 133 485 88 q 578 269 578 178 l 578 910 l 696 910 m 431 986 l 333 986 l 425 1151 l 549 1151 l 431 986 z "},"Û":{"ha":800,"x_min":104,"x_max":696,"o":"m 696 910 l 696 288 q 622 62 696 140 q 400 -17 549 -17 q 180 58 256 -17 q 104 285 104 133 l 104 910 l 222 910 l 222 269 q 269 133 222 178 q 400 88 315 88 q 531 133 485 88 q 578 269 578 178 l 578 910 l 696 910 m 219 988 l 219 1082 l 414 1167 l 608 1082 l 608 988 l 414 1056 l 219 988 z "},"Ü":{"ha":800,"x_min":104,"x_max":696,"o":"m 696 910 l 696 288 q 622 62 696 140 q 400 -17 549 -17 q 180 58 256 -17 q 104 285 104 133 l 104 910 l 222 910 l 222 269 q 269 133 222 178 q 400 88 315 88 q 531 133 485 88 q 578 269 578 178 l 578 910 l 696 910 m 368 1047 q 292 986 368 986 q 236 1002 256 986 q 217 1047 217 1018 l 217 1088 q 236 1135 217 1119 q 292 1150 256 1150 q 368 1088 368 1150 l 368 1047 m 607 1047 q 531 986 607 986 q 456 1047 456 986 l 456 1088 q 531 1150 456 1150 q 607 1088 607 1150 l 607 1047 z "},"Ý":{"ha":688,"x_min":21,"x_max":667,"o":"m 403 313 l 403 0 l 285 0 l 285 313 l 21 910 l 156 910 l 344 438 l 535 910 l 667 910 l 403 313 m 364 986 l 267 986 l 358 1151 l 482 1151 l 364 986 z "},"Þ":{"ha":778,"x_min":104,"x_max":665,"o":"m 104 0 l 104 910 l 222 910 l 222 740 q 288 747 256 744 q 344 749 319 749 q 588 682 511 749 q 665 496 665 615 l 665 463 q 590 264 665 336 q 356 192 515 192 q 294 194 325 192 q 222 203 263 196 l 222 0 l 104 0 m 222 304 q 297 295 269 297 q 350 293 325 293 q 547 468 547 293 l 547 492 q 499 610 547 569 q 342 650 450 650 q 270 648 296 650 q 222 643 244 646 l 222 304 z "},"ß":{"ha":675,"x_min":104,"x_max":640,"o":"m 104 0 l 104 742 q 156 912 104 858 q 329 965 207 965 q 486 915 429 965 q 543 786 543 865 l 543 749 q 524 674 543 704 q 483 620 506 644 q 442 574 461 596 q 424 526 424 553 l 424 506 q 430 472 424 485 q 454 449 436 460 l 519 410 q 613 336 585 378 q 640 236 640 294 l 640 190 q 597 31 640 78 q 446 -17 554 -17 q 390 -11 424 -17 q 310 4 356 -6 l 313 108 q 384 94 349 100 q 446 88 419 88 q 501 109 482 88 q 519 179 519 131 l 519 222 q 508 273 519 254 q 467 308 496 292 l 400 346 q 328 408 347 375 q 310 496 310 440 l 310 522 q 328 594 310 567 q 367 642 346 621 q 407 688 389 664 q 425 747 425 711 l 425 786 q 399 844 425 822 q 321 865 374 865 q 245 841 268 865 q 222 756 222 817 l 222 0 l 104 0 z "},"à":{"ha":651,"x_min":76,"x_max":547,"o":"m 547 0 l 435 0 l 435 108 q 253 -17 353 -17 q 125 38 174 -17 q 76 190 76 93 l 76 229 q 91 307 76 271 q 133 369 106 343 q 199 410 160 394 q 286 425 238 425 q 357 419 317 425 q 429 407 397 414 l 429 481 q 402 568 429 543 q 318 593 375 593 q 272 591 297 593 q 222 585 247 589 q 173 578 197 582 q 131 572 149 575 l 131 674 q 229 688 176 681 q 318 694 282 694 q 492 642 438 694 q 547 471 547 589 l 547 0 m 279 89 q 356 121 315 89 q 429 214 396 153 l 429 321 q 369 328 401 326 q 315 331 338 331 q 226 299 257 331 q 196 214 196 268 l 196 199 q 219 117 196 146 q 279 89 243 89 m 214 951 l 332 951 l 438 758 l 346 758 l 214 951 z "},"á":{"ha":651,"x_min":76,"x_max":547,"o":"m 547 0 l 435 0 l 435 108 q 253 -17 353 -17 q 125 38 174 -17 q 76 190 76 93 l 76 229 q 91 307 76 271 q 133 369 106 343 q 199 410 160 394 q 286 425 238 425 q 357 419 317 425 q 429 407 397 414 l 429 481 q 402 568 429 543 q 318 593 375 593 q 272 591 297 593 q 222 585 247 589 q 173 578 197 582 q 131 572 149 575 l 131 674 q 229 688 176 681 q 318 694 282 694 q 492 642 438 694 q 547 471 547 589 l 547 0 m 279 89 q 356 121 315 89 q 429 214 396 153 l 429 321 q 369 328 401 326 q 315 331 338 331 q 226 299 257 331 q 196 214 196 268 l 196 199 q 219 117 196 146 q 279 89 243 89 m 347 758 l 256 758 l 361 951 l 479 951 l 347 758 z "},"â":{"ha":651,"x_min":76,"x_max":547,"o":"m 547 0 l 435 0 l 435 108 q 253 -17 353 -17 q 125 38 174 -17 q 76 190 76 93 l 76 229 q 91 307 76 271 q 133 369 106 343 q 199 410 160 394 q 286 425 238 425 q 357 419 317 425 q 429 407 397 414 l 429 481 q 402 568 429 543 q 318 593 375 593 q 272 591 297 593 q 222 585 247 589 q 173 578 197 582 q 131 572 149 575 l 131 674 q 229 688 176 681 q 318 694 282 694 q 492 642 438 694 q 547 471 547 589 l 547 0 m 279 89 q 356 121 315 89 q 429 214 396 153 l 429 321 q 369 328 401 326 q 315 331 338 331 q 226 299 257 331 q 196 214 196 268 l 196 199 q 219 117 196 146 q 279 89 243 89 m 150 758 l 150 856 l 331 958 l 511 856 l 511 758 l 331 849 l 150 758 z "},"ã":{"ha":651,"x_min":76,"x_max":547,"o":"m 547 0 l 435 0 l 435 108 q 253 -17 353 -17 q 125 38 174 -17 q 76 190 76 93 l 76 229 q 91 307 76 271 q 133 369 106 343 q 199 410 160 394 q 286 425 238 425 q 357 419 317 425 q 429 407 397 414 l 429 481 q 402 568 429 543 q 318 593 375 593 q 272 591 297 593 q 222 585 247 589 q 173 578 197 582 q 131 572 149 575 l 131 674 q 229 688 176 681 q 318 694 282 694 q 492 642 438 694 q 547 471 547 589 l 547 0 m 279 89 q 356 121 315 89 q 429 214 396 153 l 429 321 q 369 328 401 326 q 315 331 338 331 q 226 299 257 331 q 196 214 196 268 l 196 199 q 219 117 196 146 q 279 89 243 89 m 515 854 q 475 828 504 844 q 404 813 446 813 q 366 818 383 813 q 332 830 349 824 q 299 842 315 836 q 263 847 282 847 q 235 844 250 847 q 203 835 219 840 q 174 823 188 829 q 154 813 161 817 l 154 910 q 194 935 163 918 q 265 951 225 951 q 310 946 292 951 q 344 934 329 940 q 374 922 360 928 q 407 917 389 917 q 436 921 419 917 q 469 931 453 925 q 497 942 485 936 q 515 951 510 947 l 515 854 z "},"ä":{"ha":651,"x_min":76,"x_max":547,"o":"m 547 0 l 435 0 l 435 108 q 253 -17 353 -17 q 125 38 174 -17 q 76 190 76 93 l 76 229 q 91 307 76 271 q 133 369 106 343 q 199 410 160 394 q 286 425 238 425 q 357 419 317 425 q 429 407 397 414 l 429 481 q 402 568 429 543 q 318 593 375 593 q 272 591 297 593 q 222 585 247 589 q 173 578 197 582 q 131 572 149 575 l 131 674 q 229 688 176 681 q 318 694 282 694 q 492 642 438 694 q 547 471 547 589 l 547 0 m 279 89 q 356 121 315 89 q 429 214 396 153 l 429 321 q 369 328 401 326 q 315 331 338 331 q 226 299 257 331 q 196 214 196 268 l 196 199 q 219 117 196 146 q 279 89 243 89 m 279 863 q 203 801 279 801 q 147 817 167 801 q 128 863 128 833 l 128 903 q 147 950 128 935 q 203 965 167 965 q 279 903 279 965 l 279 863 m 518 863 q 442 801 518 801 q 367 863 367 801 l 367 903 q 442 965 367 965 q 518 903 518 965 l 518 863 z "},"å":{"ha":651,"x_min":76,"x_max":547,"o":"m 547 0 l 435 0 l 435 108 q 253 -17 353 -17 q 125 38 174 -17 q 76 190 76 93 l 76 229 q 91 307 76 271 q 133 369 106 343 q 199 410 160 394 q 286 425 238 425 q 357 419 317 425 q 429 407 397 414 l 429 481 q 402 568 429 543 q 318 593 375 593 q 272 591 297 593 q 222 585 247 589 q 173 578 197 582 q 131 572 149 575 l 131 674 q 229 688 176 681 q 318 694 282 694 q 492 642 438 694 q 547 471 547 589 l 547 0 m 279 89 q 356 121 315 89 q 429 214 396 153 l 429 321 q 369 328 401 326 q 315 331 338 331 q 226 299 257 331 q 196 214 196 268 l 196 199 q 219 117 196 146 q 279 89 243 89 m 494 868 q 451 763 494 797 q 335 729 408 729 q 219 763 263 729 q 175 868 175 797 q 218 973 175 939 q 335 1007 261 1007 q 451 973 407 1007 q 494 868 494 939 m 404 868 q 389 913 404 896 q 335 931 374 931 q 281 913 296 931 q 265 868 265 896 q 281 823 265 840 q 335 806 296 806 q 389 823 374 806 q 404 868 404 840 z "},"æ":{"ha":1007,"x_min":76,"x_max":910,"o":"m 547 303 l 547 221 q 583 119 547 150 q 692 88 618 88 q 741 90 714 88 q 794 97 768 93 q 846 104 821 100 q 889 113 871 108 l 883 8 q 785 -8 838 0 q 692 -17 732 -17 q 532 19 586 -17 q 458 125 478 56 q 365 20 415 57 q 253 -17 315 -17 q 124 39 172 -17 q 76 190 76 94 l 76 229 q 90 306 76 271 q 131 368 104 342 q 197 410 158 394 q 286 425 236 425 q 357 419 317 425 q 429 407 397 414 l 429 488 q 403 572 429 546 q 318 597 376 597 q 272 595 297 597 q 222 590 247 593 q 173 583 197 586 q 131 576 149 579 l 131 674 q 229 688 176 681 q 318 694 282 694 q 500 615 450 694 q 669 694 551 694 q 848 631 786 694 q 910 446 910 568 l 910 303 l 547 303 m 429 321 q 369 328 401 326 q 315 331 338 331 q 226 299 257 331 q 196 214 196 268 l 196 199 q 219 117 196 146 q 279 89 243 89 q 356 121 315 89 q 429 214 396 153 l 429 321 m 547 400 l 792 400 l 792 460 q 759 561 792 526 q 669 596 726 596 q 583 565 615 596 q 547 471 550 533 l 547 400 z "},"ç":{"ha":557,"x_min":97,"x_max":485,"o":"m 422 -167 q 290 -274 422 -274 q 258 -272 274 -274 q 222 -267 242 -269 l 222 -193 q 249 -197 238 -196 q 272 -199 261 -199 q 316 -190 303 -199 q 329 -165 329 -181 l 329 -147 q 317 -119 328 -126 q 282 -111 306 -111 l 240 -111 l 240 -82 l 263 -7 q 138 74 178 13 q 97 236 97 135 l 97 442 q 158 629 97 564 q 349 694 218 694 q 412 691 385 694 q 485 681 439 688 l 482 576 q 417 587 446 583 q 349 590 389 590 q 249 554 282 590 q 215 451 215 518 l 215 228 q 251 122 215 157 q 349 88 286 88 q 417 91 389 88 q 482 101 446 94 l 485 -3 q 412 -13 439 -10 q 349 -17 385 -17 l 336 -57 l 350 -57 q 401 -81 379 -57 q 422 -146 422 -106 l 422 -167 z "},"è":{"ha":649,"x_min":97,"x_max":572,"o":"m 97 446 q 155 631 97 567 q 333 694 213 694 q 512 631 451 694 q 572 446 572 568 l 572 303 l 215 303 l 215 221 q 249 119 215 150 q 356 88 282 88 q 404 90 378 88 q 458 97 431 93 q 509 104 485 100 q 551 113 533 108 l 546 8 q 448 -8 500 0 q 356 -17 396 -17 q 156 44 215 -17 q 97 228 97 104 l 97 446 m 215 397 l 454 397 l 454 460 q 421 563 454 529 q 333 596 388 596 q 248 563 281 596 q 215 464 215 529 l 215 397 m 215 951 l 333 951 l 439 758 l 347 758 l 215 951 z "},"é":{"ha":649,"x_min":97,"x_max":572,"o":"m 97 446 q 155 631 97 567 q 333 694 213 694 q 512 631 451 694 q 572 446 572 568 l 572 303 l 215 303 l 215 221 q 249 119 215 150 q 356 88 282 88 q 404 90 378 88 q 458 97 431 93 q 509 104 485 100 q 551 113 533 108 l 546 8 q 448 -8 500 0 q 356 -17 396 -17 q 156 44 215 -17 q 97 228 97 104 l 97 446 m 215 397 l 454 397 l 454 460 q 421 563 454 529 q 333 596 388 596 q 248 563 281 596 q 215 464 215 529 l 215 397 m 324 758 l 232 758 l 338 951 l 456 951 l 324 758 z "},"ê":{"ha":649,"x_min":97,"x_max":572,"o":"m 97 446 q 155 631 97 567 q 333 694 213 694 q 512 631 451 694 q 572 446 572 568 l 572 303 l 215 303 l 215 221 q 249 119 215 150 q 356 88 282 88 q 404 90 378 88 q 458 97 431 93 q 509 104 485 100 q 551 113 533 108 l 546 8 q 448 -8 500 0 q 356 -17 396 -17 q 156 44 215 -17 q 97 228 97 104 l 97 446 m 215 397 l 454 397 l 454 460 q 421 563 454 529 q 333 596 388 596 q 248 563 281 596 q 215 464 215 529 l 215 397 m 157 758 l 157 856 l 338 958 l 518 856 l 518 758 l 338 849 l 157 758 z "},"ë":{"ha":649,"x_min":97,"x_max":572,"o":"m 97 446 q 155 631 97 567 q 333 694 213 694 q 512 631 451 694 q 572 446 572 568 l 572 303 l 215 303 l 215 221 q 249 119 215 150 q 356 88 282 88 q 404 90 378 88 q 458 97 431 93 q 509 104 485 100 q 551 113 533 108 l 546 8 q 448 -8 500 0 q 356 -17 396 -17 q 156 44 215 -17 q 97 228 97 104 l 97 446 m 215 397 l 454 397 l 454 460 q 421 563 454 529 q 333 596 388 596 q 248 563 281 596 q 215 464 215 529 l 215 397 m 296 863 q 219 801 296 801 q 164 817 183 801 q 144 863 144 833 l 144 903 q 164 950 144 935 q 219 965 183 965 q 296 903 296 965 l 296 863 m 535 863 q 458 801 535 801 q 383 863 383 801 l 383 903 q 458 965 383 965 q 535 903 535 965 l 535 863 z "},"ì":{"ha":340,"x_min":54,"x_max":278,"o":"m 111 0 l 111 678 l 229 678 l 229 0 l 111 0 m 54 951 l 172 951 l 278 758 l 186 758 l 54 951 z "},"í":{"ha":340,"x_min":68,"x_max":292,"o":"m 111 0 l 111 678 l 229 678 l 229 0 l 111 0 m 160 758 l 68 758 l 174 951 l 292 951 l 160 758 z "},"î":{"ha":340,"x_min":-8,"x_max":353,"o":"m 111 0 l 111 678 l 229 678 l 229 0 l 111 0 m -8 758 l -8 856 l 172 958 l 353 856 l 353 758 l 172 849 l -8 758 z "},"ï":{"ha":340,"x_min":-26,"x_max":364,"o":"m 111 0 l 111 678 l 229 678 l 229 0 l 111 0 m 125 863 q 49 801 125 801 q -7 817 13 801 q -26 863 -26 833 l -26 903 q -7 950 -26 935 q 49 965 13 965 q 125 903 125 965 l 125 863 m 364 863 q 288 801 364 801 q 213 863 213 801 l 213 903 q 288 965 213 965 q 364 903 364 965 l 364 863 z "},"ð":{"ha":690,"x_min":104,"x_max":600,"o":"m 160 965 q 463 856 354 965 l 600 896 l 600 804 l 518 781 q 567 645 550 722 q 585 472 585 568 l 585 236 q 524 49 585 114 q 344 -17 464 -17 q 161 40 218 -17 q 104 218 104 96 l 104 378 q 153 552 104 494 q 289 610 203 610 q 381 584 336 610 q 467 501 426 558 l 467 536 q 451 654 467 601 q 408 749 436 707 l 246 701 l 246 793 l 340 821 q 160 876 264 876 l 160 965 m 313 504 q 247 471 272 504 q 222 361 222 438 l 222 206 q 344 82 222 82 q 467 206 467 82 l 467 390 q 391 476 432 449 q 313 504 350 504 z "},"ñ":{"ha":682,"x_min":104,"x_max":585,"o":"m 104 0 l 104 678 l 215 678 l 215 576 q 299 664 251 633 q 400 694 346 694 q 537 635 489 694 q 585 463 585 575 l 585 0 l 467 0 l 467 446 q 442 553 467 521 q 376 585 417 585 q 294 554 336 585 q 222 471 253 524 l 222 0 l 104 0 m 525 854 q 485 828 514 844 q 414 813 456 813 q 376 818 393 813 q 342 830 358 824 q 308 842 325 836 q 272 847 292 847 q 244 844 260 847 q 213 835 229 840 q 184 823 197 829 q 164 813 171 817 l 164 910 q 203 935 172 918 q 275 951 235 951 q 320 946 301 951 q 354 934 339 940 q 384 922 369 928 q 417 917 399 917 q 446 921 429 917 q 478 931 463 925 q 507 942 494 936 q 525 951 519 947 l 525 854 z "},"ò":{"ha":683,"x_min":97,"x_max":586,"o":"m 468 453 q 435 560 468 524 q 342 596 401 596 q 249 559 282 596 q 215 451 215 522 l 215 226 q 249 119 215 156 q 342 82 282 82 q 435 119 401 82 q 468 226 468 156 l 468 453 m 586 236 q 528 51 586 118 q 342 -17 469 -17 q 156 51 214 -17 q 97 236 97 118 l 97 442 q 156 627 97 560 q 342 694 214 694 q 528 627 469 694 q 586 442 586 560 l 586 236 m 218 951 l 336 951 l 442 758 l 350 758 l 218 951 z "},"ó":{"ha":683,"x_min":97,"x_max":586,"o":"m 468 453 q 435 560 468 524 q 342 596 401 596 q 249 559 282 596 q 215 451 215 522 l 215 226 q 249 119 215 156 q 342 82 282 82 q 435 119 401 82 q 468 226 468 156 l 468 453 m 586 236 q 528 51 586 118 q 342 -17 469 -17 q 156 51 214 -17 q 97 236 97 118 l 97 442 q 156 627 97 560 q 342 694 214 694 q 528 627 469 694 q 586 442 586 560 l 586 236 m 324 758 l 232 758 l 338 951 l 456 951 l 324 758 z "},"ô":{"ha":683,"x_min":97,"x_max":586,"o":"m 468 453 q 435 560 468 524 q 342 596 401 596 q 249 559 282 596 q 215 451 215 522 l 215 226 q 249 119 215 156 q 342 82 282 82 q 435 119 401 82 q 468 226 468 156 l 468 453 m 586 236 q 528 51 586 118 q 342 -17 469 -17 q 156 51 214 -17 q 97 236 97 118 l 97 442 q 156 627 97 560 q 342 694 214 694 q 528 627 469 694 q 586 442 586 560 l 586 236 m 157 758 l 157 856 l 338 958 l 518 856 l 518 758 l 338 849 l 157 758 z "},"õ":{"ha":683,"x_min":97,"x_max":586,"o":"m 468 453 q 435 560 468 524 q 342 596 401 596 q 249 559 282 596 q 215 451 215 522 l 215 226 q 249 119 215 156 q 342 82 282 82 q 435 119 401 82 q 468 226 468 156 l 468 453 m 586 236 q 528 51 586 118 q 342 -17 469 -17 q 156 51 214 -17 q 97 236 97 118 l 97 442 q 156 627 97 560 q 342 694 214 694 q 528 627 469 694 q 586 442 586 560 l 586 236 m 518 854 q 478 828 507 844 q 407 813 449 813 q 369 818 386 813 q 335 830 351 824 q 301 842 318 836 q 265 847 285 847 q 238 844 253 847 q 206 835 222 840 q 177 823 190 829 q 157 813 164 817 l 157 910 q 197 935 165 918 q 268 951 228 951 q 313 946 294 951 q 347 934 332 940 q 377 922 363 928 q 410 917 392 917 q 439 921 422 917 q 472 931 456 925 q 500 942 488 936 q 518 951 513 947 l 518 854 z "},"ö":{"ha":683,"x_min":97,"x_max":586,"o":"m 468 453 q 435 560 468 524 q 342 596 401 596 q 249 559 282 596 q 215 451 215 522 l 215 226 q 249 119 215 156 q 342 82 282 82 q 435 119 401 82 q 468 226 468 156 l 468 453 m 586 236 q 528 51 586 118 q 342 -17 469 -17 q 156 51 214 -17 q 97 236 97 118 l 97 442 q 156 627 97 560 q 342 694 214 694 q 528 627 469 694 q 586 442 586 560 l 586 236 m 301 863 q 225 801 301 801 q 169 817 189 801 q 150 863 150 833 l 150 903 q 169 950 150 935 q 225 965 189 965 q 301 903 301 965 l 301 863 m 540 863 q 464 801 540 801 q 389 863 389 801 l 389 903 q 464 965 389 965 q 540 903 540 965 l 540 863 z "},"÷":{"ha":722,"x_min":115,"x_max":607,"o":"m 115 368 l 115 465 l 607 465 l 607 368 l 115 368 m 429 214 q 413 170 429 186 q 361 154 396 154 q 311 170 328 154 q 294 214 294 186 l 294 238 q 311 282 294 265 q 361 299 328 299 q 413 282 396 299 q 429 238 429 265 l 429 214 m 429 594 q 413 551 429 567 q 361 535 396 535 q 311 551 328 535 q 294 594 294 567 l 294 618 q 311 663 294 646 q 361 679 328 679 q 413 663 396 679 q 429 618 429 646 l 429 594 z "},"ø":{"ha":683,"x_min":8,"x_max":675,"o":"m 8 -71 l 122 100 q 97 236 97 156 l 97 442 q 156 627 97 560 q 342 694 214 694 q 492 656 433 694 l 553 747 l 675 747 l 561 575 q 586 442 586 518 l 586 236 q 528 51 586 118 q 342 -17 469 -17 q 257 -7 294 -17 q 192 21 219 3 l 131 -71 l 8 -71 m 215 219 l 438 556 q 342 596 406 596 q 249 559 282 596 q 215 451 215 522 l 215 219 m 468 453 l 246 121 q 342 82 279 82 q 435 119 401 82 q 468 226 468 156 l 468 453 z "},"ù":{"ha":689,"x_min":104,"x_max":585,"o":"m 585 678 l 585 0 l 474 0 l 474 97 q 390 13 436 42 q 289 -17 343 -17 q 154 40 204 -17 q 104 215 104 97 l 104 678 l 222 678 l 222 236 q 247 126 222 160 q 313 93 272 93 q 394 123 353 93 q 467 206 435 153 l 467 678 l 585 678 m 197 951 l 315 951 l 421 758 l 329 758 l 197 951 z "},"ú":{"ha":689,"x_min":104,"x_max":585,"o":"m 585 678 l 585 0 l 474 0 l 474 97 q 390 13 436 42 q 289 -17 343 -17 q 154 40 204 -17 q 104 215 104 97 l 104 678 l 222 678 l 222 236 q 247 126 222 160 q 313 93 272 93 q 394 123 353 93 q 467 206 435 153 l 467 678 l 585 678 m 372 758 l 281 758 l 386 951 l 504 951 l 372 758 z "},"û":{"ha":689,"x_min":104,"x_max":585,"o":"m 585 678 l 585 0 l 474 0 l 474 97 q 390 13 436 42 q 289 -17 343 -17 q 154 40 204 -17 q 104 215 104 97 l 104 678 l 222 678 l 222 236 q 247 126 222 160 q 313 93 272 93 q 394 123 353 93 q 467 206 435 153 l 467 678 l 585 678 m 164 758 l 164 856 l 344 958 l 525 856 l 525 758 l 344 849 l 164 758 z "},"ü":{"ha":689,"x_min":104,"x_max":585,"o":"m 585 678 l 585 0 l 474 0 l 474 97 q 390 13 436 42 q 289 -17 343 -17 q 154 40 204 -17 q 104 215 104 97 l 104 678 l 222 678 l 222 236 q 247 126 222 160 q 313 93 272 93 q 394 123 353 93 q 467 206 435 153 l 467 678 l 585 678 m 299 863 q 222 801 299 801 q 167 817 186 801 q 147 863 147 833 l 147 903 q 167 950 147 935 q 222 965 186 965 q 299 903 299 965 l 299 863 m 538 863 q 461 801 538 801 q 386 863 386 801 l 386 903 q 461 965 386 965 q 538 903 538 965 l 538 863 z "},"ý":{"ha":625,"x_min":21,"x_max":599,"o":"m 288 -257 l 169 -257 l 258 0 l 214 0 l 21 678 l 150 678 l 296 85 l 476 678 l 599 678 l 288 -257 m 338 758 l 246 758 l 351 951 l 469 951 l 338 758 z "},"þ":{"ha":681,"x_min":104,"x_max":583,"o":"m 104 -257 l 104 949 l 222 949 l 222 589 q 302 667 258 640 q 399 694 346 694 q 535 636 486 694 q 583 463 583 578 l 583 215 q 527 44 583 106 q 375 -17 471 -17 q 294 -1 336 -17 q 222 32 253 14 l 222 -257 l 104 -257 m 375 589 q 294 560 335 589 q 222 478 253 531 l 222 138 q 288 101 253 114 q 351 88 322 88 q 465 232 465 88 l 465 446 q 440 557 465 525 q 375 589 415 589 z "},"ÿ":{"ha":625,"x_min":21,"x_max":599,"o":"m 288 -257 l 169 -257 l 258 0 l 214 0 l 21 678 l 150 678 l 296 85 l 476 678 l 599 678 l 288 -257 m 285 863 q 208 801 285 801 q 153 817 172 801 q 133 863 133 833 l 133 903 q 153 950 133 935 q 208 965 172 965 q 285 903 285 965 l 285 863 m 524 863 q 447 801 524 801 q 372 863 372 801 l 372 903 q 447 965 372 965 q 524 903 524 965 l 524 863 z "},"ħ":{"ha":689,"x_min":7,"x_max":585,"o":"m 104 0 l 104 768 l 7 768 l 7 865 l 104 865 l 104 949 l 222 949 l 222 865 l 389 865 l 389 768 l 222 768 l 222 588 q 303 667 258 639 q 400 694 347 694 q 537 635 489 694 q 585 463 585 575 l 585 0 l 467 0 l 467 446 q 442 553 467 522 q 376 585 417 585 q 294 554 336 585 q 222 471 253 524 l 222 0 l 104 0 z "},"Ĩ":{"ha":326,"x_min":-32,"x_max":357,"o":"m 104 0 l 104 910 l 222 910 l 222 0 l 104 0 m 357 1028 q 325 1007 342 1015 q 290 992 310 999 q 246 986 269 986 q 201 992 222 986 q 160 1003 181 997 q 118 1015 139 1010 q 76 1021 97 1021 q 40 1015 58 1021 q 6 1003 21 1010 q -32 986 -12 996 l -32 1083 q 0 1104 -17 1094 q 35 1118 15 1111 q 79 1125 56 1125 q 130 1119 107 1125 q 172 1108 153 1114 q 210 1096 192 1101 q 249 1090 229 1090 q 285 1095 265 1090 q 319 1107 304 1100 q 357 1125 338 1114 l 357 1028 z "},"ĩ":{"ha":340,"x_min":-7,"x_max":354,"o":"m 111 0 l 111 678 l 229 678 l 229 0 l 111 0 m 354 854 q 314 828 343 844 q 243 813 285 813 q 205 818 222 813 q 171 830 188 824 q 138 842 154 836 q 101 847 121 847 q 74 844 89 847 q 42 835 58 840 q 13 823 26 829 q -7 813 0 817 l -7 910 q 33 935 1 918 q 104 951 64 951 q 149 946 131 951 q 183 934 168 940 q 213 922 199 928 q 246 917 228 917 q 275 921 258 917 q 308 931 292 925 q 336 942 324 936 q 354 951 349 947 l 354 854 z "},"ı":{"ha":340,"x_min":111,"x_max":229,"o":"m 111 0 l 111 678 l 229 678 l 229 0 l 111 0 z "},"Ĳ":{"ha":760,"x_min":104,"x_max":656,"o":"m 104 0 l 104 910 l 222 910 l 222 0 l 104 0 m 656 193 q 606 35 656 86 q 443 -17 556 -17 q 392 -13 419 -17 q 354 -7 364 -10 l 354 92 q 394 87 365 89 q 449 85 422 85 q 515 105 492 85 q 538 172 538 125 l 538 910 l 656 910 l 656 193 z "},"ĳ":{"ha":667,"x_min":93,"x_max":581,"o":"m 111 0 l 111 678 l 229 678 l 229 0 l 111 0 m 247 861 q 169 799 247 799 q 93 861 93 799 l 93 901 q 169 965 93 965 q 247 901 247 965 l 247 861 m 444 678 l 563 678 l 563 -67 q 512 -222 563 -171 q 350 -274 461 -274 q 301 -271 326 -274 q 267 -265 276 -268 l 267 -167 q 303 -170 278 -168 q 356 -172 329 -172 q 444 -74 444 -172 l 444 678 m 581 861 q 503 799 581 799 q 426 861 426 799 l 426 901 q 503 965 426 965 q 581 901 581 965 l 581 861 z "},"Ĵ":{"ha":449,"x_min":43,"x_max":471,"o":"m 344 193 q 294 35 344 86 q 132 -17 244 -17 q 81 -13 108 -17 q 43 -7 53 -10 l 43 92 q 83 87 54 89 q 138 85 111 85 q 203 105 181 85 q 226 172 226 125 l 226 910 l 344 910 l 344 193 m 82 988 l 82 1082 l 276 1167 l 471 1082 l 471 988 l 276 1056 l 82 988 z "},"ĵ":{"ha":326,"x_min":-74,"x_max":346,"o":"m 104 678 l 222 678 l 222 -67 q 172 -222 222 -171 q 10 -274 121 -274 q -39 -271 -14 -274 q -74 -265 -64 -268 l -74 -167 q -37 -170 -62 -168 q 15 -172 -11 -172 q 104 -74 104 -172 l 104 678 m -15 758 l -15 856 l 165 958 l 346 856 l 346 758 l 165 849 l -15 758 z "},"ķ":{"ha":628,"x_min":104,"x_max":593,"o":"m 390 -164 q 388 -198 390 -183 q 379 -229 385 -212 l 349 -321 l 278 -321 l 301 -215 q 270 -197 279 -208 q 261 -162 261 -185 l 261 -128 q 278 -92 261 -106 q 322 -78 294 -78 q 374 -92 358 -78 q 390 -128 390 -106 l 390 -164 m 104 0 l 104 949 l 222 949 l 222 381 l 444 678 l 576 678 l 346 381 l 593 0 l 451 0 l 222 364 l 222 0 l 104 0 z "},"ĸ":{"ha":628,"x_min":104,"x_max":593,"o":"m 104 0 l 104 678 l 222 678 l 222 356 l 444 678 l 576 678 l 346 354 l 593 0 l 451 0 l 222 339 l 222 0 l 104 0 z "},"Ŀ":{"ha":618,"x_min":104,"x_max":583,"o":"m 104 0 l 104 910 l 222 910 l 222 104 l 583 104 l 583 0 l 104 0 m 443 622 q 365 560 443 560 q 289 622 289 560 l 289 663 q 365 726 289 726 q 443 663 443 726 l 443 622 z "},"ŀ":{"ha":457,"x_min":104,"x_max":443,"o":"m 104 0 l 104 949 l 222 949 l 222 0 l 104 0 m 443 622 q 365 560 443 560 q 289 622 289 560 l 289 663 q 365 726 289 726 q 443 663 443 726 l 443 622 z "},"Ł":{"ha":618,"x_min":7,"x_max":583,"o":"m 7 478 l 104 504 l 104 910 l 222 910 l 222 538 l 403 589 l 403 483 l 222 432 l 222 104 l 583 104 l 583 0 l 104 0 l 104 399 l 7 372 l 7 478 z "},"ł":{"ha":326,"x_min":-21,"x_max":347,"o":"m 104 0 l 104 493 l -21 456 l -21 553 l 104 590 l 104 949 l 222 949 l 222 625 l 347 664 l 347 567 l 222 528 l 222 0 l 104 0 z "},"Ń":{"ha":808,"x_min":104,"x_max":704,"o":"m 521 0 l 221 768 l 221 0 l 104 0 l 104 910 l 293 910 l 588 142 l 588 910 l 704 910 l 704 0 l 521 0 m 460 986 l 363 986 l 454 1151 l 578 1151 l 460 986 z "},"ń":{"ha":682,"x_min":104,"x_max":585,"o":"m 104 0 l 104 678 l 215 678 l 215 576 q 299 664 251 633 q 400 694 346 694 q 537 635 489 694 q 585 463 585 575 l 585 0 l 467 0 l 467 446 q 442 553 467 521 q 376 585 417 585 q 294 554 336 585 q 222 471 253 524 l 222 0 l 104 0 m 331 758 l 239 758 l 344 951 l 463 951 l 331 758 z "},"Œ":{"ha":1071,"x_min":97,"x_max":981,"o":"m 514 0 q 386 -17 457 -17 q 168 61 239 -17 q 97 282 97 139 l 97 628 q 169 850 97 774 q 381 926 242 926 q 514 910 456 926 l 981 910 l 981 803 l 619 803 l 619 515 l 953 515 l 953 410 l 619 410 l 619 107 l 981 107 l 981 0 l 514 0 m 393 88 q 455 90 429 88 q 501 99 481 92 l 501 804 q 393 822 460 822 q 261 776 307 822 q 215 642 215 731 l 215 269 q 260 135 215 182 q 393 88 306 88 z "},"œ":{"ha":1032,"x_min":97,"x_max":949,"o":"m 586 303 l 586 221 q 621 119 586 150 q 731 88 656 88 q 780 90 753 88 q 833 97 807 93 q 885 104 860 100 q 928 113 910 108 l 922 8 q 824 -8 876 0 q 731 -17 771 -17 q 606 5 656 -17 q 525 67 557 26 q 451 6 496 28 q 342 -17 406 -17 q 156 51 214 -17 q 97 236 97 119 l 97 442 q 154 626 97 558 q 339 694 211 694 q 449 672 403 694 q 525 611 494 650 q 601 672 554 650 q 711 694 647 694 q 889 629 829 694 q 949 446 949 564 l 949 303 l 586 303 m 468 454 q 434 560 468 525 q 342 596 400 596 q 249 559 282 596 q 215 451 215 522 l 215 226 q 249 119 215 156 q 342 82 282 82 q 433 117 400 82 q 468 219 465 151 l 468 454 m 586 400 l 831 400 l 831 460 q 798 561 831 526 q 708 596 765 596 q 619 562 651 596 q 586 461 586 528 l 586 400 z "},"Ŕ":{"ha":761,"x_min":104,"x_max":726,"o":"m 344 926 q 490 909 429 926 q 588 860 550 892 q 644 785 626 829 q 663 685 663 740 l 663 649 q 651 575 663 611 q 617 507 639 539 q 565 450 596 475 q 494 411 533 425 l 726 0 l 594 0 l 375 389 l 289 389 q 222 392 260 389 l 222 0 l 104 0 l 104 921 q 224 925 163 924 q 344 926 285 926 m 342 828 q 284 827 318 828 q 222 825 250 826 l 222 497 q 296 493 269 494 q 346 492 322 492 q 499 534 453 492 q 544 651 544 576 l 544 678 q 498 790 544 753 q 342 828 451 828 m 372 986 l 275 986 l 367 1151 l 490 1151 l 372 986 z "},"Ŗ":{"ha":761,"x_min":104,"x_max":726,"o":"m 443 -164 q 440 -198 443 -183 q 432 -229 438 -212 l 401 -321 l 331 -321 l 354 -215 q 323 -197 332 -208 q 314 -162 314 -185 l 314 -128 q 331 -92 314 -106 q 375 -78 347 -78 q 427 -92 411 -78 q 443 -128 443 -106 l 443 -164 m 344 926 q 490 909 429 926 q 588 860 550 892 q 644 785 626 829 q 663 685 663 740 l 663 649 q 651 575 663 611 q 617 507 639 539 q 565 450 596 475 q 494 411 533 425 l 726 0 l 594 0 l 375 389 l 289 389 q 222 392 260 389 l 222 0 l 104 0 l 104 921 q 224 925 163 924 q 344 926 285 926 m 342 828 q 284 827 318 828 q 222 825 250 826 l 222 497 q 296 493 269 494 q 346 492 322 492 q 499 534 453 492 q 544 651 544 576 l 544 678 q 498 790 544 753 q 342 828 451 828 z "},"ŗ":{"ha":479,"x_min":101,"x_max":431,"o":"m 231 -164 q 228 -198 231 -183 q 219 -229 225 -212 l 189 -321 l 118 -321 l 142 -215 q 110 -197 119 -208 q 101 -162 101 -185 l 101 -128 q 118 -92 101 -106 q 163 -78 135 -78 q 215 -92 199 -78 q 231 -128 231 -106 l 231 -164 m 104 0 l 104 678 l 215 678 l 215 576 q 299 664 251 633 q 400 694 346 694 q 431 692 419 694 l 431 558 q 408 562 419 561 q 376 563 396 563 q 292 540 332 563 q 222 465 253 517 l 222 0 l 104 0 z "},"Ř":{"ha":761,"x_min":104,"x_max":726,"o":"m 344 926 q 490 909 429 926 q 588 860 550 892 q 644 785 626 829 q 663 685 663 740 l 663 649 q 651 575 663 611 q 617 507 639 539 q 565 450 596 475 q 494 411 533 425 l 726 0 l 594 0 l 375 389 l 289 389 q 222 392 260 389 l 222 0 l 104 0 l 104 921 q 224 925 163 924 q 344 926 285 926 m 342 828 q 284 827 318 828 q 222 825 250 826 l 222 497 q 296 493 269 494 q 346 492 322 492 q 499 534 453 492 q 544 651 544 576 l 544 678 q 498 790 544 753 q 342 828 451 828 m 363 1100 l 557 1168 l 557 1074 l 363 989 l 168 1074 l 168 1168 l 363 1100 z "},"ř":{"ha":479,"x_min":60,"x_max":431,"o":"m 104 0 l 104 678 l 215 678 l 215 576 q 299 664 251 633 q 400 694 346 694 q 431 692 419 694 l 431 558 q 408 562 419 561 q 376 563 396 563 q 292 540 332 563 q 222 465 253 517 l 222 0 l 104 0 m 240 868 l 421 958 l 421 861 l 240 758 l 60 861 l 60 958 l 240 868 z "},"ȷ":{"ha":326,"x_min":-74,"x_max":222,"o":"m 104 678 l 222 678 l 222 -67 q 172 -222 222 -171 q 10 -274 121 -274 q -39 -271 -14 -274 q -74 -265 -64 -268 l -74 -167 q -37 -170 -62 -168 q 15 -172 -11 -172 q 104 -74 104 -172 l 104 678 z "},"ˆ":{"ha":639,"x_min":139,"x_max":500,"o":"m 139 758 l 139 856 l 319 958 l 500 856 l 500 758 l 319 849 l 139 758 z "},"ˇ":{"ha":639,"x_min":139,"x_max":500,"o":"m 319 868 l 500 958 l 500 861 l 319 758 l 139 861 l 139 958 l 319 868 z "},"˚":{"ha":528,"x_min":104,"x_max":424,"o":"m 424 868 q 381 763 424 797 q 264 729 338 729 q 148 763 192 729 q 104 868 104 797 q 147 973 104 939 q 264 1007 190 1007 q 380 973 336 1007 q 424 868 424 939 m 333 868 q 318 913 333 896 q 264 931 303 931 q 210 913 225 931 q 194 868 194 896 q 210 823 194 840 q 264 806 225 806 q 318 823 303 806 q 333 868 333 840 z "},"˜":{"ha":639,"x_min":139,"x_max":500,"o":"m 500 854 q 460 828 489 844 q 389 813 431 813 q 351 818 368 813 q 317 830 333 824 q 283 842 300 836 q 247 847 267 847 q 219 844 235 847 q 188 835 204 840 q 159 823 172 829 q 139 813 146 817 l 139 910 q 178 935 147 918 q 250 951 210 951 q 295 946 276 951 q 329 934 314 940 q 359 922 344 928 q 392 917 374 917 q 421 921 404 917 q 453 931 438 925 q 482 942 469 936 q 500 951 494 947 l 500 854 z "},"̇":{"ha":349,"x_min":97,"x_max":251,"o":"m 251 1047 q 174 985 251 985 q 97 1047 97 985 l 97 1088 q 174 1151 97 1151 q 251 1088 251 1151 l 251 1047 z "},"–":{"ha":847,"x_min":90,"x_max":757,"o":"m 90 365 l 90 456 l 757 456 l 757 365 l 90 365 z "},"—":{"ha":986,"x_min":90,"x_max":896,"o":"m 90 365 l 90 456 l 896 456 l 896 365 l 90 365 z "},"‘":{"ha":301,"x_min":82,"x_max":231,"o":"m 82 774 q 92 843 82 813 l 133 967 l 215 967 l 183 829 q 231 771 231 818 l 231 732 q 157 671 231 671 q 82 732 82 671 l 82 774 z "},"’":{"ha":301,"x_min":76,"x_max":225,"o":"m 225 863 q 215 793 225 824 l 174 669 l 92 669 l 124 807 q 76 865 76 818 l 76 904 q 150 965 76 965 q 225 904 225 965 l 225 863 z "},"‚":{"ha":301,"x_min":76,"x_max":225,"o":"m 225 43 q 215 -26 225 4 l 174 -150 l 92 -150 l 124 -12 q 76 46 76 -1 l 76 85 q 150 146 76 146 q 225 85 225 146 l 225 43 z "},"“":{"ha":496,"x_min":82,"x_max":425,"o":"m 82 772 q 92 842 82 811 l 133 965 l 215 965 l 183 828 q 231 769 231 817 l 231 731 q 157 669 231 669 q 82 731 82 669 l 82 772 m 276 772 q 286 842 276 811 l 328 965 l 410 965 l 378 828 q 425 769 425 817 l 425 731 q 351 669 425 669 q 276 731 276 669 l 276 772 z "},"”":{"ha":496,"x_min":76,"x_max":419,"o":"m 225 863 q 215 793 225 824 l 174 669 l 92 669 l 124 807 q 76 865 76 818 l 76 904 q 150 965 76 965 q 225 904 225 965 l 225 863 m 419 863 q 410 793 419 824 l 368 669 l 286 669 l 318 807 q 271 865 271 818 l 271 904 q 344 965 271 965 q 419 904 419 965 l 419 863 z "},"„":{"ha":496,"x_min":76,"x_max":419,"o":"m 225 43 q 215 -26 225 4 l 174 -150 l 92 -150 l 124 -12 q 76 46 76 -1 l 76 85 q 150 146 76 146 q 225 85 225 146 l 225 43 m 419 43 q 410 -26 419 4 l 368 -150 l 286 -150 l 318 -12 q 271 46 271 -1 l 271 85 q 344 146 271 146 q 419 85 419 146 l 419 43 z "},"•":{"ha":326,"x_min":76,"x_max":250,"o":"m 250 349 q 227 296 250 314 q 163 278 204 278 q 99 296 122 278 q 76 349 76 314 l 76 394 q 99 447 76 429 q 163 465 122 465 q 227 447 204 465 q 250 394 250 429 l 250 349 z "},"‹":{"ha":442,"x_min":90,"x_max":351,"o":"m 351 678 l 222 442 l 351 206 l 229 206 l 90 442 l 229 678 l 351 678 z "},"›":{"ha":442,"x_min":90,"x_max":351,"o":"m 213 678 l 351 442 l 213 206 l 90 206 l 219 442 l 90 678 l 213 678 z "},"€":{"ha":722,"x_min":65,"x_max":647,"o":"m 299 453 l 299 367 l 551 367 l 531 269 l 299 269 l 299 254 q 335 126 299 165 q 456 88 372 88 q 558 95 507 88 q 644 110 608 103 l 647 6 q 552 -10 601 -3 q 456 -17 503 -17 q 328 1 381 -17 q 242 53 275 18 q 195 142 210 89 q 181 264 181 194 l 181 269 l 65 269 l 86 367 l 181 367 l 181 453 l 74 453 l 94 550 l 181 550 l 181 571 q 244 782 181 713 q 456 851 307 851 q 552 844 503 851 q 647 829 601 838 l 644 728 q 558 742 608 735 q 456 750 507 750 q 335 711 372 750 q 299 582 299 672 l 299 550 l 589 550 l 568 453 l 299 453 z "},"":{"ha":417,"x_min":122,"x_max":251,"o":"m 251 35 q 249 1 251 15 q 240 -31 246 -14 l 210 -122 l 139 -122 l 163 -17 q 131 2 140 -10 q 122 36 122 14 l 122 71 q 139 107 122 93 q 183 121 156 121 q 235 107 219 121 q 251 71 251 93 l 251 35 z "}}}
